<?xml version="1.0" encoding="UTF-8" ?>
<!DOCTYPE svg PUBLIC "-//W3C//DTD SVG 1.1//EN" "http://www.w3.org/Graphics/SVG/1.1/DTD/svg11.dtd">
<svg width="346pt" height="344pt" viewBox="0 0 346 344" version="1.1" xmlns="http://www.w3.org/2000/svg">
<g id="#e5e5e5ff">
</g>
<g id="#000000ff">
<path fill="#000000" opacity="1.00" d=" M 8.56 2.37 C 59.51 2.47 110.47 2.19 161.40 2.51 C 169.84 8.62 172.20 19.57 174.02 29.22 C 198.66 32.02 222.05 44.60 237.59 63.98 C 268.60 64.25 299.62 64.08 330.64 64.12 C 333.85 67.98 337.13 71.77 340.27 75.68 C 340.24 94.57 340.21 113.46 340.29 132.35 C 336.31 137.40 330.37 140.66 324.10 141.84 C 312.53 144.21 300.72 141.72 289.06 142.56 C 281.97 150.65 274.76 158.66 267.74 166.82 C 259.18 158.18 251.08 149.12 242.65 140.36 C 235.16 157.28 224.82 173.05 211.36 185.82 C 211.40 192.70 211.55 199.58 211.76 206.46 C 228.19 211.47 244.51 216.86 260.83 222.22 C 265.51 261.03 270.06 299.87 272.82 338.87 C 205.70 338.87 138.58 338.88 71.45 338.86 C 73.52 299.80 78.65 261.01 83.19 222.18 C 99.45 216.82 115.73 211.51 132.09 206.44 C 132.46 199.11 132.88 191.77 133.07 184.43 C 129.61 182.50 126.59 179.90 123.18 177.89 C 116.82 176.01 110.09 175.58 103.80 173.39 C 97.96 171.59 92.83 167.79 89.18 162.92 C 84.28 155.70 83.13 146.87 80.77 138.66 C 87.02 137.87 93.27 137.09 99.52 136.31 C 98.76 143.13 97.85 149.94 97.17 156.77 C 102.57 159.88 107.88 163.15 113.33 166.17 C 107.89 152.18 102.68 138.08 96.28 124.49 C 92.66 118.13 94.20 110.50 93.29 103.51 C 87.30 103.52 81.32 103.43 75.34 103.57 C 68.69 111.75 61.82 119.74 54.90 127.70 C 47.88 120.11 40.65 112.72 33.64 105.11 C 23.11 103.67 11.75 101.81 3.73 94.19 C 3.78 68.46 3.74 42.72 3.74 16.99 C 3.64 13.49 3.82 10.00 4.08 6.51 C 4.83 5.47 5.57 4.43 6.30 3.37 C 6.86 3.12 8.00 2.62 8.56 2.37 M 15.38 14.40 C 14.71 39.87 15.10 65.34 15.12 90.82 C 22.89 91.49 30.66 92.14 38.45 92.66 C 43.71 98.75 48.93 104.88 54.11 111.05 C 59.32 105.28 63.86 98.84 69.82 93.79 C 77.36 90.55 85.80 92.78 93.73 92.17 C 97.45 80.72 103.08 69.85 110.70 60.51 C 123.09 45.02 141.12 33.76 160.85 30.79 C 160.46 25.16 160.04 19.53 159.71 13.90 C 111.60 13.98 63.48 12.97 15.38 14.40 M 125.65 60.71 C 112.50 73.32 104.39 91.09 103.79 109.32 C 131.27 93.52 160.63 79.65 192.28 75.04 C 195.38 84.66 196.28 96.30 205.03 102.81 C 215.03 110.74 228.51 108.39 240.33 109.31 C 239.38 89.17 229.68 69.62 214.15 56.75 C 203.02 47.32 188.61 41.70 173.97 41.67 C 156.10 40.62 138.18 48.06 125.65 60.71 M 243.46 74.98 C 246.67 84.71 249.96 94.63 250.25 104.97 C 250.64 113.28 247.98 121.67 242.49 127.97 C 252.55 133.27 260.59 141.53 267.67 150.27 C 272.82 143.99 277.91 137.66 283.28 131.58 C 298.39 131.69 313.50 131.32 328.60 130.70 C 329.06 112.42 329.25 94.12 328.47 75.85 C 300.15 74.50 271.79 75.51 243.46 74.98 M 109.66 119.77 C 112.98 135.37 116.78 151.90 127.92 163.98 C 140.66 165.87 153.56 164.83 166.38 164.98 C 166.34 168.65 166.41 172.32 166.54 175.98 C 158.32 176.24 150.09 176.46 141.88 176.93 C 154.88 187.61 173.44 189.87 189.12 184.40 C 201.24 180.51 211.07 171.62 218.50 161.53 C 227.04 149.60 231.49 135.32 234.06 121.01 C 225.51 121.77 216.73 120.67 208.84 117.19 C 195.93 111.83 186.12 100.48 181.42 87.45 C 156.41 95.51 131.70 105.27 109.66 119.77 M 143.56 193.07 C 143.76 201.35 144.06 209.63 144.13 217.91 C 152.32 221.73 160.00 226.79 168.76 229.26 C 170.76 229.66 172.90 230.58 174.88 229.65 C 183.44 226.49 191.50 222.16 199.70 218.21 C 200.08 209.83 200.20 201.44 200.38 193.05 C 182.24 199.91 161.73 199.73 143.56 193.07 M 93.05 230.92 C 89.78 263.25 86.06 295.54 82.99 327.90 C 99.61 327.75 116.23 327.74 132.86 327.74 C 132.79 291.05 133.08 254.36 132.71 217.68 C 119.49 222.09 106.26 226.48 93.05 230.92 M 211.12 217.65 C 211.11 254.35 211.13 291.06 211.11 327.77 C 227.64 327.74 244.17 327.66 260.69 328.16 C 258.26 295.66 254.04 263.33 250.95 230.89 C 237.67 226.49 224.42 222.01 211.12 217.65 M 190.80 236.04 C 191.55 238.71 193.83 240.33 196.15 241.57 C 198.05 239.97 200.99 238.77 201.29 236.00 C 201.09 233.22 198.20 232.06 196.19 230.71 C 194.01 232.07 192.00 233.71 190.80 236.04 M 143.90 232.30 C 143.56 234.57 142.77 237.01 143.82 239.21 C 145.82 241.60 149.16 240.58 151.75 240.00 C 152.09 237.63 153.12 234.74 151.34 232.69 C 149.30 230.73 146.30 231.85 143.90 232.30 M 180.19 246.65 C 185.08 264.64 190.28 282.55 194.51 300.71 C 190.18 309.84 185.58 318.84 181.30 327.99 C 187.57 327.96 193.84 327.80 200.11 327.60 C 200.11 302.68 200.22 277.76 200.00 252.85 C 193.38 250.81 186.80 248.71 180.19 246.65 M 144.14 252.64 C 143.70 277.63 143.72 302.61 143.76 327.60 C 150.08 327.87 156.41 327.78 162.74 328.00 C 158.51 318.81 153.91 309.81 149.37 300.78 C 153.73 282.69 158.80 264.78 163.79 246.86 C 157.21 248.70 150.67 250.65 144.14 252.64 M 171.57 260.88 C 168.09 273.51 164.70 286.16 160.88 298.69 C 164.77 305.77 168.65 312.86 172.58 319.92 C 176.03 312.79 179.36 305.61 182.89 298.53 C 179.48 285.88 175.70 273.32 171.57 260.88 Z" />
</g>
</svg>
