<?xml version="1.0" encoding="UTF-8" ?>
<!DOCTYPE svg PUBLIC "-//W3C//DTD SVG 1.1//EN" "http://www.w3.org/Graphics/SVG/1.1/DTD/svg11.dtd">
<svg width="352pt" height="351pt" viewBox="0 0 352 351" version="1.1" xmlns="http://www.w3.org/2000/svg">
<g id="#000000ff">
<path fill="#000000" opacity="1.00" d=" M 0.00 0.00 L 0.24 0.00 C 0.18 0.05 0.06 0.15 0.00 0.19 L 0.00 0.00 Z" />
<path fill="#000000" opacity="1.00" d=" M 23.37 4.44 C 24.77 3.57 26.41 3.57 28.00 3.60 C 124.70 3.71 221.42 3.50 318.12 3.70 C 327.87 7.45 335.91 15.45 340.03 25.03 C 340.25 63.33 340.06 101.65 340.12 139.96 C 340.06 180.63 340.25 221.31 340.03 261.97 C 335.90 270.60 330.40 280.69 320.10 282.59 C 291.75 286.35 263.12 283.31 234.66 284.24 C 240.50 291.46 246.41 298.63 252.29 305.83 C 253.07 307.09 254.75 306.47 255.95 306.65 C 272.35 306.72 288.80 305.47 305.15 307.28 C 306.42 307.39 307.66 307.76 308.82 308.31 C 321.26 314.35 332.06 323.83 339.27 335.68 C 340.30 336.94 340.09 338.60 340.19 340.12 C 228.69 340.13 117.19 340.13 5.69 340.12 C 5.78 329.03 14.81 320.96 23.45 315.44 C 28.52 312.50 33.06 308.01 39.16 307.50 C 56.27 304.76 73.60 307.34 90.80 306.62 C 96.83 299.09 103.16 291.79 109.06 284.15 C 80.67 283.41 52.12 286.25 23.85 282.64 C 15.44 281.20 10.23 273.71 5.88 267.07 C 4.96 265.48 3.40 264.00 3.62 262.01 C 3.66 183.34 3.55 104.67 3.68 26.00 C 6.97 16.60 14.57 8.95 23.37 4.44 M 304.48 14.54 C 303.31 14.71 302.14 14.80 300.97 14.81 C 257.99 14.78 215.02 14.82 172.05 14.80 C 169.03 14.69 166.03 14.43 163.01 14.51 C 142.33 14.65 121.64 14.28 100.97 14.69 C 76.66 14.97 52.34 14.77 28.03 15.50 C 24.03 15.41 20.38 17.88 18.22 21.12 C 15.56 24.83 14.91 29.43 14.47 33.86 C 14.57 93.89 14.51 153.96 14.51 214.01 C 14.96 226.64 14.90 239.30 14.65 251.93 C 12.80 261.59 20.00 272.30 30.06 273.07 C 56.37 272.99 82.70 272.84 109.01 273.20 C 151.03 273.20 193.04 273.20 235.06 273.20 C 261.36 272.84 287.68 273.00 313.99 273.05 C 320.97 272.35 326.95 266.67 328.77 260.00 C 329.63 255.71 328.83 251.34 328.98 247.02 C 329.14 174.66 329.48 102.29 328.81 29.93 C 328.67 27.33 328.00 24.69 326.63 22.46 C 321.88 15.42 312.38 13.70 304.48 14.54 M 105.46 306.38 C 107.26 306.86 109.13 307.00 110.99 306.95 C 152.00 306.99 193.01 306.99 234.02 306.95 C 235.52 307.01 237.01 306.79 238.44 306.30 C 232.38 298.83 226.30 291.34 219.99 284.08 C 212.69 283.31 205.30 284.12 197.97 284.01 C 173.29 283.90 148.61 284.24 123.93 283.77 C 117.77 291.30 111.27 298.58 105.46 306.38 M 38.84 317.81 C 34.08 321.47 29.39 325.24 24.67 328.96 C 45.11 329.68 65.60 328.70 86.05 329.49 C 134.71 329.47 183.36 329.49 232.02 329.48 C 260.38 328.88 288.77 329.39 317.14 329.16 C 317.58 329.01 318.47 328.71 318.92 328.55 C 314.30 325.31 309.96 321.68 305.51 318.22 C 304.58 317.28 303.27 317.06 302.01 317.15 C 261.67 317.25 221.33 317.01 180.99 317.31 C 135.00 317.41 89.02 317.17 43.04 317.14 C 41.65 317.28 40.00 316.79 38.84 317.81 Z" />
<path fill="#000000" opacity="1.00" d=" M 26.98 26.98 C 53.64 26.77 80.30 26.69 106.95 26.27 C 147.64 26.11 188.34 26.26 229.03 26.19 C 241.66 26.87 254.31 26.14 266.94 26.68 C 283.56 26.65 300.18 26.87 316.80 26.92 C 317.28 97.56 317.72 168.22 316.56 238.85 C 232.70 239.10 148.83 239.08 64.97 239.00 C 52.32 238.58 39.66 238.90 27.00 238.80 C 27.00 213.55 26.61 188.30 26.32 163.06 C 25.81 117.70 27.04 72.35 26.98 26.98 M 37.10 39.03 C 37.09 102.02 37.13 165.02 37.08 228.01 C 42.03 228.40 47.00 228.11 51.97 228.20 C 110.98 228.20 169.99 228.20 229.00 228.20 C 254.93 228.09 280.87 228.41 306.79 228.04 C 307.15 165.35 306.85 102.67 306.98 39.98 C 307.28 38.69 306.59 36.90 305.02 37.10 C 216.65 37.08 128.28 37.13 39.92 37.08 C 38.67 36.79 36.89 37.51 37.10 39.03 Z" />
<path fill="#000000" opacity="1.00" d=" M 49.00 49.20 C 120.35 48.73 191.71 48.72 263.06 48.99 C 273.67 48.89 284.27 49.45 294.88 49.12 C 294.60 59.99 295.13 70.89 294.47 81.75 C 264.35 82.37 234.22 81.72 204.10 82.20 C 203.84 82.48 203.34 83.06 203.08 83.34 C 207.18 97.12 205.14 112.59 197.88 124.97 C 192.13 135.11 182.52 142.66 171.60 146.56 C 156.98 151.85 141.29 147.48 127.11 142.87 C 125.91 147.77 126.17 152.85 125.79 157.85 C 111.67 171.69 98.71 186.69 83.89 199.81 C 79.31 204.03 74.62 209.06 68.11 209.90 C 55.12 211.54 42.19 199.09 43.99 185.95 C 45.08 179.53 50.00 174.79 54.03 170.02 C 64.03 159.44 74.91 149.68 84.79 138.97 C 87.16 135.88 90.41 133.71 93.31 131.18 C 98.00 128.10 103.78 127.06 109.19 128.75 C 109.22 128.18 109.30 127.03 109.33 126.46 C 106.42 111.77 104.70 96.75 106.19 81.78 C 87.20 82.31 68.20 81.96 49.21 81.81 C 48.87 70.95 48.94 60.07 49.00 49.20 M 148.53 59.77 C 143.02 60.79 137.76 63.11 132.99 66.01 C 115.46 77.42 110.53 103.63 121.97 120.94 C 125.45 126.44 130.77 130.40 136.17 133.86 C 155.34 144.95 182.60 135.21 191.38 115.13 C 193.41 110.34 194.24 105.15 194.87 100.03 C 195.86 76.41 171.76 55.45 148.53 59.77 M 59.28 59.94 C 59.84 63.51 58.19 67.76 59.94 70.92 C 77.18 70.76 94.45 71.49 111.70 70.88 C 113.55 68.97 115.56 67.22 117.42 65.33 C 119.09 63.63 121.98 62.77 122.27 60.07 C 112.86 59.36 103.44 60.33 94.02 59.88 C 82.44 60.20 70.86 59.57 59.28 59.94 M 187.69 59.94 C 190.06 64.00 193.68 67.15 196.37 71.00 C 224.24 71.39 252.11 71.09 279.98 71.22 C 281.51 71.24 283.05 71.12 284.58 70.96 C 284.52 67.24 284.50 63.52 284.11 59.82 C 254.42 59.27 224.72 59.58 195.02 59.49 C 192.57 59.45 190.09 59.40 187.69 59.94 M 56.59 183.43 C 51.71 189.47 57.57 199.22 64.99 199.06 C 69.42 199.80 72.22 195.69 75.31 193.28 C 89.35 181.54 100.91 167.26 114.01 154.55 C 108.71 149.85 103.65 144.87 98.24 140.31 C 84.81 155.11 69.39 168.04 56.59 183.43 Z" />
<path fill="#000000" opacity="1.00" d=" M 136.09 72.13 C 141.56 67.70 148.40 65.28 155.31 64.33 C 156.06 69.16 153.75 73.99 149.54 76.43 C 143.47 80.14 137.44 84.55 134.08 91.01 C 132.16 93.97 130.82 97.80 127.34 99.27 C 124.98 100.59 122.33 99.30 119.98 98.67 C 122.33 88.44 127.37 78.33 136.09 72.13 Z" />
<path fill="#000000" opacity="1.00" d=" M 255.00 105.22 C 268.16 104.64 281.32 105.29 294.48 105.26 C 295.07 117.94 295.01 130.65 295.10 143.34 C 291.56 143.34 288.02 143.32 284.48 143.39 C 284.06 136.83 284.40 130.26 283.97 123.71 C 271.39 136.07 258.88 148.50 246.58 161.13 C 238.51 157.75 230.71 153.79 222.63 150.45 C 206.33 165.49 189.54 180.00 173.09 194.88 C 167.41 191.45 161.58 188.26 155.83 184.94 C 155.47 184.94 154.74 184.95 154.37 184.95 C 144.03 194.11 133.48 203.04 122.84 211.87 C 121.54 213.05 120.18 214.17 118.63 215.01 C 116.71 212.13 114.50 209.45 112.78 206.44 C 126.84 195.00 140.32 182.79 154.34 171.28 C 159.90 174.84 165.46 178.38 171.09 181.83 C 188.19 167.59 204.40 152.32 221.32 137.88 C 228.60 141.33 236.00 144.51 243.34 147.83 C 245.51 148.80 246.51 145.95 247.80 144.80 C 256.29 135.98 265.00 127.35 273.72 118.75 C 274.50 117.99 275.10 117.10 275.52 116.07 C 269.66 115.38 263.42 116.44 257.85 114.23 C 254.44 112.48 254.75 108.45 255.00 105.22 Z" />
<path fill="#000000" opacity="1.00" d=" M 143.98 250.94 C 162.58 250.75 181.19 250.79 199.80 250.93 C 199.80 254.40 199.80 257.88 199.81 261.36 C 181.21 261.25 162.61 261.34 144.00 261.31 C 143.97 257.85 143.97 254.40 143.98 250.94 Z" />
</g>
<g id="#e5e5e5ff">
</g>
<g id="#c3c3c3ff">
<path fill="#c3c3c3" opacity="1.00" d=" M 304.48 14.54 C 312.38 13.70 321.88 15.42 326.63 22.46 C 328.00 24.69 328.67 27.33 328.81 29.93 C 329.48 102.29 329.14 174.66 328.98 247.02 C 328.83 251.34 329.63 255.71 328.77 260.00 C 326.95 266.67 320.97 272.35 313.99 273.05 C 287.68 273.00 261.36 272.84 235.06 273.20 C 193.04 273.20 151.03 273.20 109.01 273.20 C 82.70 272.84 56.37 272.99 30.06 273.07 C 20.00 272.30 12.80 261.59 14.65 251.93 C 14.90 239.30 14.96 226.64 14.51 214.01 C 14.51 153.96 14.57 93.89 14.47 33.86 C 14.91 29.43 15.56 24.83 18.22 21.12 C 20.38 17.88 24.03 15.41 28.03 15.50 C 52.34 14.77 76.66 14.97 100.97 14.69 C 121.64 14.28 142.33 14.65 163.01 14.51 C 166.03 14.43 169.03 14.69 172.05 14.80 C 215.02 14.82 257.99 14.78 300.97 14.81 C 302.14 14.80 303.31 14.71 304.48 14.54 M 26.98 26.98 C 27.04 72.35 25.81 117.70 26.32 163.06 C 26.61 188.30 27.00 213.55 27.00 238.80 C 39.66 238.90 52.32 238.58 64.97 239.00 C 148.83 239.08 232.70 239.10 316.56 238.85 C 317.72 168.22 317.28 97.56 316.80 26.92 C 300.18 26.87 283.56 26.65 266.94 26.68 C 254.31 26.14 241.66 26.87 229.03 26.19 C 188.34 26.26 147.64 26.11 106.95 26.27 C 80.30 26.69 53.64 26.77 26.98 26.98 M 143.98 250.94 C 143.97 254.40 143.97 257.85 144.00 261.31 C 162.61 261.34 181.21 261.25 199.81 261.36 C 199.80 257.88 199.80 254.40 199.80 250.93 C 181.19 250.79 162.58 250.75 143.98 250.94 Z" />
<path fill="#c3c3c3" opacity="1.00" d=" M 105.46 306.38 C 111.27 298.58 117.77 291.30 123.93 283.77 C 148.61 284.24 173.29 283.90 197.97 284.01 C 205.30 284.12 212.69 283.31 219.99 284.08 C 226.30 291.34 232.38 298.83 238.44 306.30 C 237.01 306.79 235.52 307.01 234.02 306.95 C 193.01 306.99 152.00 306.99 110.99 306.95 C 109.13 307.00 107.26 306.86 105.46 306.38 Z" />
<path fill="#c3c3c3" opacity="1.00" d=" M 38.84 317.81 C 40.00 316.79 41.65 317.28 43.04 317.14 C 89.02 317.17 135.00 317.41 180.99 317.31 C 221.33 317.01 261.67 317.25 302.01 317.15 C 303.27 317.06 304.58 317.28 305.51 318.22 C 309.96 321.68 314.30 325.31 318.92 328.55 C 318.47 328.71 317.58 329.01 317.14 329.16 C 288.77 329.39 260.38 328.88 232.02 329.48 C 183.36 329.49 134.71 329.47 86.05 329.49 C 65.60 328.70 45.11 329.68 24.67 328.96 C 29.39 325.24 34.08 321.47 38.84 317.81 Z" />
</g>
<g id="#ffffffff">
<path fill="#ffffff" opacity="1.00" d=" M 37.10 39.03 C 36.89 37.51 38.67 36.79 39.92 37.08 C 128.28 37.13 216.65 37.08 305.02 37.10 C 306.59 36.90 307.28 38.69 306.98 39.98 C 306.85 102.67 307.15 165.35 306.79 228.04 C 280.87 228.41 254.93 228.09 229.00 228.20 C 169.99 228.20 110.98 228.20 51.97 228.20 C 47.00 228.11 42.03 228.40 37.08 228.01 C 37.13 165.02 37.09 102.02 37.10 39.03 M 49.00 49.20 C 48.94 60.07 48.87 70.95 49.21 81.81 C 68.20 81.96 87.20 82.31 106.19 81.78 C 104.70 96.75 106.42 111.77 109.33 126.46 C 109.30 127.03 109.22 128.18 109.19 128.75 C 103.78 127.06 98.00 128.10 93.31 131.18 C 90.41 133.71 87.16 135.88 84.79 138.97 C 74.91 149.68 64.03 159.44 54.03 170.02 C 50.00 174.79 45.08 179.53 43.99 185.95 C 42.19 199.09 55.12 211.54 68.11 209.90 C 74.62 209.06 79.31 204.03 83.89 199.81 C 98.71 186.69 111.67 171.69 125.79 157.85 C 126.17 152.85 125.91 147.77 127.11 142.87 C 141.29 147.48 156.98 151.85 171.60 146.56 C 182.52 142.66 192.13 135.11 197.88 124.97 C 205.14 112.59 207.18 97.12 203.08 83.34 C 203.34 83.06 203.84 82.48 204.10 82.20 C 234.22 81.72 264.35 82.37 294.47 81.75 C 295.13 70.89 294.60 59.99 294.88 49.12 C 284.27 49.45 273.67 48.89 263.06 48.99 C 191.71 48.72 120.35 48.73 49.00 49.20 M 255.00 105.22 C 254.75 108.45 254.44 112.48 257.85 114.23 C 263.42 116.44 269.66 115.38 275.52 116.07 C 275.10 117.10 274.50 117.99 273.72 118.75 C 265.00 127.35 256.29 135.98 247.80 144.80 C 246.51 145.95 245.51 148.80 243.34 147.83 C 236.00 144.51 228.60 141.33 221.32 137.88 C 204.40 152.32 188.19 167.59 171.09 181.83 C 165.46 178.38 159.90 174.84 154.34 171.28 C 140.32 182.79 126.84 195.00 112.78 206.44 C 114.50 209.45 116.71 212.13 118.63 215.01 C 120.18 214.17 121.54 213.05 122.84 211.87 C 133.48 203.04 144.03 194.11 154.37 184.95 C 154.74 184.95 155.47 184.94 155.83 184.94 C 161.58 188.26 167.41 191.45 173.09 194.88 C 189.54 180.00 206.33 165.49 222.63 150.45 C 230.71 153.79 238.51 157.75 246.58 161.13 C 258.88 148.50 271.39 136.07 283.97 123.71 C 284.40 130.26 284.06 136.83 284.48 143.39 C 288.02 143.32 291.56 143.34 295.10 143.34 C 295.01 130.65 295.07 117.94 294.48 105.26 C 281.32 105.29 268.16 104.64 255.00 105.22 Z" />
</g>
<g id="#c7fffdff">
<path fill="#c7fffd" opacity="1.00" d=" M 148.53 59.77 C 171.76 55.45 195.86 76.41 194.87 100.03 C 194.24 105.15 193.41 110.34 191.38 115.13 C 182.60 135.21 155.34 144.95 136.17 133.86 C 130.77 130.40 125.45 126.44 121.97 120.94 C 110.53 103.63 115.46 77.42 132.99 66.01 C 137.76 63.11 143.02 60.79 148.53 59.77 M 136.09 72.13 C 127.37 78.33 122.33 88.44 119.98 98.67 C 122.33 99.30 124.98 100.59 127.34 99.27 C 130.82 97.80 132.16 93.97 134.08 91.01 C 137.44 84.55 143.47 80.14 149.54 76.43 C 153.75 73.99 156.06 69.16 155.31 64.33 C 148.40 65.28 141.56 67.70 136.09 72.13 Z" />
</g>
<g id="#0ed145ff">
<path fill="#0ed145" opacity="1.00" d=" M 59.28 59.94 C 70.86 59.57 82.44 60.20 94.02 59.88 C 103.44 60.33 112.86 59.36 122.27 60.07 C 121.98 62.77 119.09 63.63 117.42 65.33 C 115.56 67.22 113.55 68.97 111.70 70.88 C 94.45 71.49 77.18 70.76 59.94 70.92 C 58.19 67.76 59.84 63.51 59.28 59.94 Z" />
<path fill="#0ed145" opacity="1.00" d=" M 187.69 59.94 C 190.09 59.40 192.57 59.45 195.02 59.49 C 224.72 59.58 254.42 59.27 284.11 59.82 C 284.50 63.52 284.52 67.24 284.58 70.96 C 283.05 71.12 281.51 71.24 279.98 71.22 C 252.11 71.09 224.24 71.39 196.37 71.00 C 193.68 67.15 190.06 64.00 187.69 59.94 Z" />
</g>
<g id="#835b41ff">
<path fill="#835b41" opacity="1.00" d=" M 56.59 183.43 C 69.39 168.04 84.81 155.11 98.24 140.31 C 103.65 144.87 108.71 149.85 114.01 154.55 C 100.91 167.26 89.35 181.54 75.31 193.28 C 72.22 195.69 69.42 199.80 64.99 199.06 C 57.57 199.22 51.71 189.47 56.59 183.43 Z" />
</g>
</svg>
