<?xml version="1.0" encoding="UTF-8" ?>
<!DOCTYPE svg PUBLIC "-//W3C//DTD SVG 1.1//EN" "http://www.w3.org/Graphics/SVG/1.1/DTD/svg11.dtd">
<svg width="65pt" height="65pt" viewBox="0 0 65 65" version="1.1" xmlns="http://www.w3.org/2000/svg">
<g id="#000000ff">
<path fill="#000000" opacity="1.00" d=" M 0.00 0.00 L 39.29 0.00 C 41.43 2.02 43.91 3.88 45.38 6.47 C 45.78 15.01 45.40 23.59 45.52 32.14 C 46.04 32.52 47.07 33.27 47.58 33.65 C 47.74 41.42 47.58 49.20 47.68 56.98 C 47.65 59.67 47.97 62.48 46.81 65.00 L 0.53 65.00 C 0.40 64.91 0.13 64.72 0.00 64.62 L 0.00 0.00 M 2.18 2.20 C 2.23 12.19 2.06 22.19 2.25 32.18 C 2.77 32.29 3.81 32.51 4.33 32.62 C 4.37 31.19 4.40 29.76 4.44 28.33 C 12.19 28.08 19.95 28.21 27.71 28.25 C 28.76 29.68 29.83 31.11 30.90 32.53 C 35.05 32.53 39.20 32.54 43.35 32.53 C 43.36 24.24 43.36 15.96 43.35 7.68 C 41.54 7.61 39.73 7.52 37.93 7.36 C 37.94 5.64 37.92 3.91 37.93 2.19 C 26.01 2.21 14.10 2.19 2.18 2.20 M 6.38 30.43 L 6.61 32.53 C 9.48 32.54 12.34 32.55 15.20 32.49 C 13.62 28.95 9.38 30.68 6.38 30.43 M 16.24 30.28 C 16.77 31.03 17.30 31.78 17.83 32.53 C 18.83 32.56 19.84 32.57 20.85 32.55 C 21.51 29.76 17.92 30.35 16.24 30.28 M 22.83 30.28 C 23.33 31.02 23.83 31.76 24.33 32.51 C 25.57 32.53 26.82 32.55 28.06 32.57 C 27.62 31.85 27.17 31.13 26.73 30.41 C 25.43 30.36 24.13 30.32 22.83 30.28 M 2.18 34.67 C 2.17 44.07 2.18 53.47 2.18 62.86 C 16.63 62.86 31.09 62.90 45.54 62.84 C 45.50 53.45 45.57 44.05 45.50 34.66 C 31.06 34.68 16.62 34.65 2.18 34.67 Z" />
<path fill="#000000" opacity="1.00" d=" M 56.90 0.00 L 57.85 0.00 C 60.39 3.42 62.73 7.00 65.00 10.60 L 65.00 65.00 L 49.90 65.00 C 49.70 48.33 49.93 31.66 49.78 15.00 C 48.96 8.94 54.18 4.80 56.90 0.00 M 52.06 11.87 C 51.91 25.24 52.04 38.62 52.01 52.00 L 53.05 52.00 C 53.08 47.36 53.00 42.72 53.14 38.09 C 55.22 37.99 57.29 37.93 59.37 37.89 C 59.78 42.59 59.52 47.30 59.60 52.01 C 60.40 52.00 62.02 51.99 62.83 51.98 C 62.71 38.39 63.03 24.78 62.69 11.20 C 61.22 8.32 59.13 5.80 57.45 3.05 C 55.71 6.01 53.05 8.57 52.06 11.87 M 55.21 40.14 C 55.24 44.78 55.30 49.42 55.15 54.05 C 54.36 54.10 52.78 54.21 52.00 54.26 C 52.00 57.13 52.00 60.00 52.01 62.87 C 55.61 62.87 59.22 62.87 62.82 62.86 C 62.82 59.98 62.82 57.10 62.82 54.21 C 61.08 54.21 59.34 54.17 57.60 54.16 C 57.23 49.44 57.49 44.71 57.38 39.99 C 56.84 40.03 55.75 40.10 55.21 40.14 Z" />
<path fill="#000000" opacity="1.00" d=" M 4.31 3.27 C 10.47 3.26 16.64 3.27 22.80 3.26 C 22.76 3.81 22.69 4.89 22.65 5.44 C 16.58 5.37 10.51 5.39 4.44 5.42 C 4.41 4.89 4.34 3.81 4.31 3.27 Z" />
<path fill="#000000" opacity="1.00" d=" M 4.29 8.64 C 4.32 8.11 4.38 7.05 4.42 6.52 C 7.29 6.53 10.16 6.53 13.03 6.54 C 13.01 7.08 12.97 8.15 12.95 8.69 C 10.06 8.67 7.18 8.66 4.29 8.64 Z" />
<path fill="#000000" opacity="1.00" d=" M 29.15 9.34 C 34.09 7.05 40.38 10.63 41.04 15.99 C 41.93 20.81 38.00 25.83 33.07 25.96 C 28.09 26.49 23.48 21.90 23.86 16.93 C 23.98 13.66 26.12 10.57 29.15 9.34 M 25.87 16.21 C 27.73 16.24 29.59 16.27 31.45 16.28 C 31.40 14.41 31.38 12.54 31.28 10.68 C 28.72 11.67 26.77 13.62 25.87 16.21 M 33.57 10.96 C 33.56 12.21 33.56 13.47 33.56 14.72 C 34.48 13.80 35.40 12.88 36.31 11.96 C 35.40 11.63 34.48 11.29 33.57 10.96 M 32.96 18.38 C 30.61 18.39 28.26 18.41 25.92 18.45 C 26.96 22.35 31.33 25.17 35.20 23.24 C 39.01 21.66 39.76 16.90 38.05 13.50 C 36.30 15.07 34.61 16.71 32.96 18.38 Z" />
<path fill="#000000" opacity="1.00" d=" M 12.86 17.23 C 15.60 15.55 18.24 13.71 21.08 12.19 C 21.31 12.62 21.77 13.48 22.00 13.92 C 19.21 16.06 16.08 17.69 13.11 19.57 C 11.71 19.22 10.31 18.86 8.90 18.51 C 7.58 19.51 6.25 20.50 4.94 21.50 C 4.67 21.00 4.14 19.99 3.88 19.48 C 5.40 18.40 6.91 17.30 8.41 16.19 C 9.89 16.54 11.38 16.87 12.86 17.23 Z" />
<path fill="#000000" opacity="1.00" d=" M 4.32 37.11 C 17.27 36.56 30.26 36.98 43.23 36.90 C 43.33 39.02 43.33 41.14 43.26 43.26 C 31.84 43.44 20.41 43.26 8.99 43.36 C 7.53 43.13 5.66 43.83 4.46 42.77 C 4.27 40.89 4.34 39.00 4.32 37.11 M 6.68 39.06 C 6.63 39.60 6.51 40.67 6.46 41.21 C 18.03 41.18 29.60 41.21 41.17 41.19 C 41.17 40.65 41.18 39.55 41.18 39.01 C 29.68 39.04 18.18 38.91 6.68 39.06 Z" />
<path fill="#000000" opacity="1.00" d=" M 26.10 49.97 C 31.80 49.77 37.51 49.87 43.21 49.91 C 43.34 53.00 43.49 56.10 43.31 59.19 C 43.64 61.16 41.17 60.53 40.05 60.69 C 35.44 60.68 30.83 60.67 26.22 60.63 C 25.89 57.09 25.95 53.52 26.10 49.97 M 28.17 52.01 C 28.18 54.18 28.18 56.35 28.18 58.53 C 32.51 58.54 36.84 58.54 41.17 58.53 C 41.17 56.35 41.18 54.18 41.17 52.01 C 36.84 52.00 32.51 52.00 28.17 52.01 Z" />
</g>
</svg>
