<?xml version="1.0" standalone="no"?>
<!DOCTYPE svg PUBLIC "-//W3C//DTD SVG 20010904//EN"
 "http://www.w3.org/TR/2001/REC-SVG-20010904/DTD/svg10.dtd">
<svg version="1.0" xmlns="http://www.w3.org/2000/svg"
 width="65.000000pt" height="65.000000pt" viewBox="0 0 65.000000 65.000000"
 preserveAspectRatio="xMidYMid meet">

<g transform="translate(0.000000,65.000000) scale(0.100000,-0.100000)"
fill="#000000" stroke="none">
<path d="M535 633 c-44 -7 -104 -25 -134 -38 -29 -14 -72 -25 -95 -25 -38 0
-47 -6 -110 -69 -38 -39 -65 -74 -62 -80 4 -6 26 -11 49 -11 l41 0 -46 -47
c-62 -65 -68 -80 -68 -172 l0 -81 80 0 c91 0 117 10 170 64 30 32 35 34 42 19
3 -10 7 -30 7 -45 1 -16 4 -28 9 -28 4 0 41 33 81 74 71 71 73 76 67 110 -5
29 -2 45 19 80 23 40 42 109 60 224 8 49 13 48 -110 25z m80 -69 c-16 -130
-64 -222 -149 -283 l-48 -34 -85 85 -86 86 31 44 c32 47 75 84 131 112 36 19
138 44 185 45 l28 1 -7 -56z m-317 -41 c-13 -16 -35 -43 -47 -60 -17 -25 -30
-33 -52 -33 -16 0 -29 3 -29 7 0 4 23 31 52 60 35 36 60 53 77 53 l25 0 -26
-27z m21 -207 c65 -65 73 -77 61 -91 -12 -14 -22 -8 -91 61 -60 60 -76 81 -67
91 6 7 13 13 17 13 4 0 40 -33 80 -74z m-109 21 c0 -2 -7 -18 -16 -35 -9 -18
-14 -49 -12 -74 3 -43 3 -43 46 -46 25 -2 56 3 74 12 38 19 38 19 38 3 0 -8
-12 -24 -26 -38 -22 -20 -38 -24 -106 -28 l-80 -3 3 80 c4 68 8 84 28 106 20
22 51 35 51 23z m64 -66 c21 -22 35 -44 32 -50 -4 -6 -27 -11 -52 -11 l-44 0
0 43 c0 70 11 73 64 18z m220 -52 l-59 -60 -8 32 c-7 25 -5 34 7 41 8 5 34 23
58 42 35 27 45 30 52 18 6 -10 -8 -30 -50 -73z"/>
<path d="M470 571 c0 -12 5 -21 10 -21 6 0 10 6 10 14 0 8 -4 18 -10 21 -5 3
-10 -3 -10 -14z"/>
<path d="M545 559 c-10 -15 3 -25 16 -12 7 7 7 13 1 17 -6 3 -14 1 -17 -5z"/>
<path d="M431 521 c-12 -12 -21 -29 -21 -39 0 -11 -9 -27 -20 -37 -23 -20 -26
-45 -8 -63 17 -17 38 -15 60 5 11 10 34 22 51 28 66 21 58 116 -10 123 -22 2
-38 -3 -52 -17z m77 -13 c27 -27 10 -64 -37 -78 -28 -8 -31 -7 -21 5 7 8 19
15 26 15 17 0 18 12 2 28 -16 16 -28 15 -28 -2 0 -7 -7 -19 -15 -26 -12 -10
-13 -7 -5 21 14 47 51 64 78 37z m-90 -107 c3 -8 -1 -12 -9 -9 -7 2 -15 10
-17 17 -3 8 1 12 9 9 7 -2 15 -10 17 -17z"/>
<path d="M550 480 c0 -5 9 -10 21 -10 11 0 17 5 14 10 -3 6 -13 10 -21 10 -8
0 -14 -4 -14 -10z"/>
<path d="M0 335 c0 -8 6 -15 14 -15 42 0 63 -83 29 -111 -35 -30 -60 -148 -33
-164 5 -3 7 -12 3 -20 -3 -8 0 -15 5 -15 16 0 24 18 11 25 -7 5 3 22 27 46 40
41 40 68 1 31 -13 -12 -27 -22 -31 -22 -16 0 4 63 34 108 17 25 30 51 30 58 0
27 -25 66 -51 80 -35 18 -39 18 -39 -1z"/>
<path d="M301 71 c-48 -51 -100 -70 -54 -19 28 31 5 33 -27 3 -44 -42 -40 -59
12 -52 33 4 51 15 80 46 43 47 50 49 79 20 14 -14 19 -28 15 -45 -6 -22 -4
-24 34 -24 22 0 40 5 40 10 0 6 -11 10 -25 10 -19 0 -25 5 -25 20 0 27 -43 70
-71 70 -12 0 -37 -17 -58 -39z"/>
<path d="M115 50 c-25 -25 -33 -40 -24 -40 19 0 84 66 71 73 -5 4 -26 -12 -47
-33z"/>
<path d="M500 10 c0 -5 5 -10 10 -10 6 0 10 5 10 10 0 6 -4 10 -10 10 -5 0
-10 -4 -10 -10z"/>
<path d="M540 10 c0 -5 5 -10 10 -10 6 0 10 5 10 10 0 6 -4 10 -10 10 -5 0
-10 -4 -10 -10z"/>
</g>
</svg>
