<?xml version="1.0" encoding="UTF-8" ?>
<!DOCTYPE svg PUBLIC "-//W3C//DTD SVG 1.1//EN" "http://www.w3.org/Graphics/SVG/1.1/DTD/svg11.dtd">
<svg width="350pt" height="347pt" viewBox="0 0 350 347" version="1.1" xmlns="http://www.w3.org/2000/svg">
<g id="#e3e3e3ff">
</g>
<g id="#000000ff">
<path fill="#000000" opacity="1.00" d=" M 6.64 2.77 C 118.80 2.74 230.96 2.77 343.12 2.76 C 343.14 13.29 343.05 23.83 343.17 34.36 C 337.60 35.69 331.96 36.72 326.37 37.95 C 325.91 108.36 327.28 178.77 325.70 249.17 C 310.93 249.60 296.15 249.44 281.38 249.78 C 258.23 277.24 241.63 309.30 222.17 339.30 C 150.33 339.17 78.48 339.27 6.63 339.25 C 6.71 334.50 6.34 329.72 7.03 325.01 C 12.13 287.66 13.85 249.79 21.94 212.89 C 22.46 210.62 22.61 208.30 22.68 205.98 C 24.55 149.76 22.69 93.51 23.39 37.27 C 17.80 36.64 12.21 35.91 6.62 35.21 C 6.64 24.40 6.62 13.58 6.64 2.77 M 16.77 14.11 C 17.00 17.76 17.86 21.35 19.03 24.80 C 31.69 24.62 44.34 25.11 56.99 25.06 C 130.65 26.31 204.33 25.34 278.00 25.42 C 296.06 24.84 314.13 25.31 332.19 25.36 C 332.17 21.62 332.22 17.87 332.06 14.14 C 308.70 14.02 285.33 14.47 261.99 13.82 C 222.66 13.92 183.33 13.67 144.00 13.94 C 120.00 13.67 95.98 13.92 71.97 13.81 C 53.59 14.44 35.17 14.06 16.77 14.11 M 35.32 36.08 C 35.01 36.40 34.40 37.04 34.09 37.36 C 33.81 46.56 34.26 55.78 33.81 64.98 C 33.78 69.43 33.43 73.94 34.35 78.34 C 35.22 77.55 36.14 76.77 36.71 75.72 C 45.44 60.71 57.84 47.64 72.98 39.01 C 74.23 38.34 75.09 37.20 76.00 36.15 C 66.69 35.19 57.33 36.13 48.00 36.00 C 43.77 36.07 39.54 35.83 35.32 36.08 M 139.79 36.42 C 140.35 37.05 140.95 37.64 141.58 38.20 C 151.21 43.96 160.45 50.83 167.27 59.85 C 172.99 66.58 177.17 74.42 180.61 82.50 C 184.05 91.66 185.61 101.43 185.73 111.19 C 185.56 115.13 182.99 118.31 181.63 121.86 C 178.25 130.54 176.12 139.62 173.20 148.45 C 169.65 158.28 164.03 167.35 156.82 174.92 C 153.92 179.09 149.56 182.01 146.59 186.07 C 145.75 192.42 146.16 198.87 145.82 205.25 C 145.72 206.61 147.49 207.07 148.45 207.60 C 156.98 210.78 165.81 213.44 174.95 214.00 C 177.09 214.12 179.32 214.17 181.24 213.07 C 182.23 202.05 180.62 191.04 180.59 180.02 C 180.38 170.52 181.61 160.33 187.71 152.65 C 189.23 150.09 192.71 148.42 192.25 145.02 C 192.06 137.08 192.83 129.16 193.04 121.22 C 203.51 121.24 213.98 121.24 224.45 121.22 C 224.39 125.49 224.22 129.77 224.66 134.03 C 225.00 145.27 224.70 156.52 224.17 167.74 C 219.57 169.05 215.29 171.97 213.16 176.36 C 212.38 177.92 210.94 179.98 212.33 181.63 C 217.40 183.50 222.94 183.51 228.16 184.86 C 240.51 186.80 252.73 181.98 265.09 183.47 C 269.93 184.16 275.03 186.23 278.08 190.14 C 281.53 198.98 280.64 208.73 280.77 218.03 C 281.05 225.11 279.55 232.25 280.87 239.28 C 292.24 239.22 303.62 239.27 315.00 239.03 C 316.13 235.15 315.45 231.03 315.88 227.04 C 315.91 167.36 315.89 107.68 315.89 47.99 C 315.54 43.99 316.09 39.86 315.00 35.95 C 258.99 35.98 202.96 36.18 146.95 35.74 C 144.55 35.67 142.13 35.84 139.79 36.42 M 95.57 41.10 C 94.47 42.13 92.92 41.95 91.56 42.23 C 90.36 43.02 88.91 42.99 87.55 43.24 C 86.57 43.69 85.55 44.03 84.50 44.25 C 83.99 44.51 82.97 45.02 82.47 45.28 C 81.97 45.52 80.96 46.02 80.46 46.27 C 79.96 46.52 78.96 47.02 78.46 47.27 C 77.96 47.53 76.97 48.03 76.47 48.29 C 75.96 48.52 74.94 48.99 74.43 49.22 C 63.77 55.66 54.58 64.70 48.27 75.46 C 47.50 76.87 46.51 78.16 45.71 79.56 C 45.23 80.54 44.73 81.51 44.21 82.47 C 43.90 84.25 43.26 85.97 42.23 87.47 C 41.98 88.51 41.69 89.54 41.34 90.55 C 41.02 91.57 40.65 92.57 40.24 93.55 C 39.98 94.91 40.07 96.42 39.16 97.57 C 38.92 99.25 39.37 101.19 38.11 102.57 C 38.03 105.21 37.65 107.97 38.47 110.54 C 40.44 111.90 41.89 109.42 43.50 108.66 C 44.01 108.43 45.04 107.97 45.55 107.75 C 46.04 107.49 47.04 106.97 47.53 106.71 C 48.04 106.47 49.06 106.01 49.57 105.77 C 51.31 104.88 52.86 103.69 54.52 102.67 C 55.03 102.44 56.04 101.97 56.54 101.74 C 57.04 101.48 58.04 100.98 58.54 100.73 C 59.04 100.48 60.04 99.98 60.54 99.73 C 61.04 99.48 62.04 98.98 62.54 98.73 C 63.04 98.47 64.04 97.97 64.54 97.71 C 65.04 97.47 66.05 96.99 66.55 96.75 C 68.04 95.74 69.75 95.09 71.52 94.77 C 72.02 94.51 73.03 93.97 73.53 93.71 C 74.04 93.47 75.05 92.99 75.55 92.75 C 77.05 91.73 78.76 91.07 80.55 90.81 C 81.54 90.25 82.51 89.67 83.47 89.06 C 83.98 89.03 85.01 88.96 85.52 88.93 C 86.91 87.68 88.73 87.17 90.49 86.70 C 91.47 86.33 92.46 85.99 93.46 85.67 C 94.45 85.32 95.45 84.99 96.46 84.68 C 97.45 84.32 98.45 83.99 99.46 83.68 C 100.45 83.33 101.45 82.99 102.45 82.67 C 103.70 82.07 105.09 81.97 106.45 81.76 C 107.43 81.35 108.43 80.98 109.45 80.66 C 110.70 80.07 112.09 79.96 113.44 79.76 C 114.92 78.75 116.75 79.02 118.43 78.84 C 119.86 77.68 121.75 78.05 123.43 77.84 C 124.46 77.25 125.56 76.89 126.75 76.77 C 127.43 78.61 128.04 80.48 128.24 82.44 C 129.00 83.65 129.00 85.09 129.23 86.45 C 129.65 87.43 130.01 88.43 130.34 89.45 C 130.68 90.45 130.99 91.47 131.25 92.50 C 131.51 93.01 132.03 94.03 132.29 94.53 C 132.53 95.04 133.00 96.06 133.24 96.57 C 135.59 100.74 139.27 104.40 143.43 106.77 C 143.94 107.00 144.96 107.47 145.48 107.70 C 145.98 107.98 147.00 108.55 147.50 108.83 C 148.89 109.03 150.44 108.85 151.57 109.88 C 153.57 110.13 155.90 109.45 157.57 110.90 C 163.88 110.78 170.31 111.54 176.54 110.54 C 177.36 107.63 176.95 104.55 176.89 101.57 C 175.63 100.19 176.07 98.24 175.83 96.56 C 175.35 95.59 174.96 94.59 174.66 93.56 C 174.02 92.28 173.96 90.85 173.86 89.46 C 173.28 88.48 172.68 87.50 172.07 86.53 C 172.03 86.03 171.95 85.01 171.91 84.50 C 171.02 83.23 170.35 81.83 169.72 80.43 C 169.48 79.93 169.01 78.94 168.77 78.44 C 166.51 74.15 163.28 70.44 160.74 66.36 C 156.62 62.51 153.18 57.72 148.38 54.73 C 146.07 52.52 143.38 50.73 140.53 49.29 C 139.44 48.75 138.47 48.00 137.55 47.22 C 135.77 46.90 134.04 46.27 132.55 45.25 C 132.03 45.00 131.01 44.51 130.50 44.26 C 129.44 44.02 128.43 43.68 127.44 43.24 C 126.09 43.00 124.63 43.02 123.44 42.23 C 122.08 41.95 120.52 42.14 119.43 41.10 C 111.48 40.96 103.52 40.95 95.57 41.10 M 87.89 97.86 C 73.02 104.18 58.08 110.87 44.84 120.25 C 48.32 138.81 54.62 158.03 68.79 171.25 C 83.67 187.66 109.41 192.67 129.46 183.40 C 139.44 178.75 147.83 171.13 154.24 162.25 C 162.71 150.28 167.37 136.12 170.16 121.84 C 167.27 120.62 164.08 121.36 161.04 121.14 C 141.51 120.39 123.47 106.53 117.79 87.81 C 107.53 90.20 97.74 94.21 87.89 97.86 M 34.13 126.21 C 34.11 133.45 33.38 140.69 33.92 147.94 C 34.14 170.30 33.92 192.66 34.01 215.01 C 34.03 216.18 34.43 217.23 35.20 218.16 C 39.57 216.38 44.19 215.28 48.53 213.42 C 54.47 211.51 60.36 209.44 66.29 207.50 C 67.40 207.16 68.35 206.49 69.30 205.86 C 69.31 199.31 68.91 192.77 68.92 186.23 C 56.87 175.67 47.68 162.20 41.40 147.51 C 40.89 145.78 40.21 144.10 39.39 142.49 C 37.89 136.97 35.60 131.72 34.13 126.21 M 203.54 131.18 C 201.55 131.17 202.38 133.73 202.10 134.93 C 202.23 143.12 201.96 151.33 202.20 159.51 C 202.53 159.83 203.17 160.46 203.50 160.78 C 207.11 160.86 210.92 161.40 214.44 160.42 C 215.51 156.11 214.57 151.50 214.92 147.07 C 214.64 141.89 215.39 136.62 214.50 131.51 C 210.97 130.54 207.16 130.98 203.54 131.18 M 192.44 162.18 C 191.10 178.13 191.76 194.14 191.89 210.13 C 195.55 210.12 199.22 210.12 202.89 210.14 C 201.95 200.09 203.62 190.07 203.77 180.03 C 203.82 172.74 202.69 165.00 197.98 159.15 C 196.12 160.13 194.26 161.12 192.44 162.18 M 214.17 191.97 C 212.16 197.92 213.46 204.39 213.08 210.56 C 213.37 211.08 213.94 212.12 214.23 212.64 C 214.88 213.42 215.53 214.21 216.19 215.01 C 218.12 215.01 220.05 215.03 221.98 215.08 C 223.00 213.57 223.96 212.01 224.97 210.50 C 224.58 204.35 226.16 197.85 224.11 191.94 C 220.80 192.03 217.48 192.02 214.17 191.97 M 79.18 193.47 C 79.29 201.81 79.58 210.15 79.64 218.49 C 89.32 222.98 98.96 227.58 108.70 231.94 C 117.57 227.24 126.49 222.62 135.48 218.14 C 135.61 209.93 135.80 201.73 136.03 193.52 C 117.84 200.27 97.37 200.10 79.18 193.47 M 238.44 192.98 C 237.39 194.10 235.57 195.08 235.87 196.89 C 236.13 203.93 235.98 210.97 235.84 218.01 C 235.90 220.19 235.59 222.54 236.72 224.53 C 237.27 225.60 236.74 227.87 238.52 227.83 C 241.13 228.13 243.93 228.43 246.45 227.51 C 246.79 226.55 247.08 225.58 247.30 224.59 C 248.48 222.61 248.02 220.25 248.06 218.07 C 247.72 212.03 248.76 206.01 248.09 199.99 C 247.67 197.74 249.07 194.58 246.70 193.16 C 243.96 192.76 241.19 193.03 238.44 192.98 M 260.22 194.02 C 259.29 200.31 258.58 206.65 258.49 213.02 C 258.35 216.89 259.54 220.65 259.59 224.51 C 262.54 226.54 266.15 226.88 269.33 225.11 C 269.44 217.34 271.54 209.66 270.75 201.88 C 270.48 199.20 269.47 196.39 267.22 194.76 C 265.13 193.44 262.54 193.98 260.22 194.02 M 175.04 230.00 C 172.34 237.15 179.64 245.79 187.18 243.62 C 192.89 241.90 196.81 236.96 201.01 233.00 C 211.62 232.52 222.24 232.24 232.83 231.49 C 231.43 227.26 228.50 223.30 224.02 222.05 C 213.54 218.88 202.60 223.13 191.96 221.32 C 185.32 219.99 177.45 223.43 175.04 230.00 M 126.31 236.95 C 127.56 239.13 129.67 242.47 132.63 241.64 C 134.64 240.43 137.33 238.73 136.90 236.00 C 136.77 233.32 133.80 232.28 132.00 230.83 C 129.71 232.38 126.61 233.83 126.31 236.95 M 79.87 232.13 C 78.52 234.75 77.49 238.80 80.39 240.78 C 82.36 241.77 84.74 241.54 86.74 240.77 C 88.72 238.92 87.81 235.69 87.58 233.30 C 85.47 231.32 82.47 231.85 79.87 232.13 M 204.82 244.76 C 201.57 248.29 198.52 252.00 195.24 255.50 C 203.50 262.73 212.97 269.22 223.87 271.55 C 231.71 273.33 239.74 271.41 247.25 269.10 C 260.23 264.13 268.36 251.37 271.90 238.44 C 268.00 237.49 264.03 236.76 260.01 236.74 C 241.21 236.41 223.70 246.13 204.82 244.76 M 115.82 247.02 C 120.73 265.01 125.66 282.98 130.31 301.04 C 125.52 309.88 121.30 319.01 116.54 327.86 C 122.93 328.15 129.33 328.13 135.73 328.43 C 135.72 303.42 135.90 278.40 135.61 253.39 C 129.03 251.21 122.40 249.20 115.82 247.02 M 79.66 253.19 C 79.23 278.15 79.41 303.12 79.37 328.09 C 85.74 328.23 92.11 328.24 98.48 328.39 C 94.31 317.35 84.45 307.59 86.38 294.95 C 90.15 278.87 95.20 263.12 99.43 247.16 C 92.83 249.13 86.26 251.22 79.66 253.19 M 105.29 265.52 C 105.06 266.56 104.76 267.59 104.42 268.60 C 104.09 269.60 103.75 270.59 103.40 271.58 C 103.07 272.58 102.73 273.58 102.37 274.58 C 102.10 275.92 101.83 277.27 101.43 278.59 C 101.09 279.59 100.74 280.59 100.38 281.59 C 100.06 282.60 99.72 283.60 99.35 284.60 C 99.09 285.95 98.82 287.30 98.43 288.62 C 98.08 289.62 97.72 290.61 97.35 291.60 C 97.12 292.97 96.93 294.39 96.22 295.63 C 96.10 297.21 96.05 298.80 96.05 300.39 C 96.66 301.36 97.26 302.34 97.86 303.33 C 98.72 305.40 99.42 307.53 100.30 309.60 C 100.84 310.53 101.36 311.47 101.88 312.42 C 103.37 315.25 104.25 318.51 106.45 320.90 C 106.70 320.91 107.22 320.95 107.47 320.97 C 109.19 319.07 110.40 316.75 111.71 314.56 C 112.51 312.80 113.39 311.08 114.26 309.36 C 114.49 308.87 114.96 307.87 115.19 307.37 C 116.09 305.65 117.23 304.08 118.24 302.43 C 120.51 300.07 119.33 297.33 118.64 294.60 C 118.27 293.60 117.91 292.61 117.56 291.62 C 117.12 290.32 116.88 288.96 116.66 287.61 C 116.28 286.61 115.92 285.61 115.57 284.61 C 115.18 283.29 114.90 281.95 114.61 280.62 C 114.11 279.33 113.88 277.97 113.66 276.62 C 113.28 275.61 112.92 274.61 112.57 273.60 C 112.18 272.29 111.90 270.95 111.61 269.62 C 111.04 268.32 110.88 266.91 110.75 265.52 C 110.02 264.06 109.16 262.68 108.22 261.36 C 106.98 262.55 105.90 263.89 105.29 265.52 Z" />
<path fill="#000000" opacity="1.00" d=" M 288.81 48.52 C 293.48 48.02 298.17 48.35 302.85 48.15 C 302.91 64.40 302.99 80.65 303.30 96.90 C 303.63 121.41 302.79 145.93 302.79 170.45 C 292.19 170.44 281.60 169.98 271.00 169.73 C 271.09 129.45 270.78 89.17 271.22 48.89 C 277.07 48.28 282.95 48.85 288.81 48.52 M 281.48 58.22 C 281.18 58.51 280.58 59.10 280.28 59.40 C 280.11 92.45 280.33 125.52 280.17 158.58 C 280.91 159.33 281.66 160.08 282.41 160.83 C 285.47 160.76 288.53 160.76 291.59 160.83 C 292.33 160.08 293.08 159.33 293.83 158.58 C 293.67 125.52 293.89 92.45 293.72 59.39 C 293.42 59.10 292.83 58.51 292.53 58.22 C 288.85 58.02 285.15 58.02 281.48 58.22 Z" />
<path fill="#000000" opacity="1.00" d=" M 231.86 88.26 C 242.34 87.97 252.83 87.89 263.32 87.87 C 264.53 115.03 263.73 142.25 263.91 169.43 C 253.63 169.89 243.36 170.71 233.07 171.04 C 230.34 143.52 232.24 115.85 231.86 88.26 M 241.19 98.11 C 241.42 118.08 241.26 138.05 241.27 158.03 C 241.09 159.17 241.47 160.08 242.40 160.76 C 246.09 160.89 249.79 160.99 253.48 160.85 C 255.28 160.60 254.70 158.31 254.87 157.09 C 254.59 150.61 254.75 144.13 254.70 137.65 C 254.14 136.50 253.90 135.28 253.98 134.00 C 254.03 123.00 253.97 111.99 254.02 100.99 C 253.74 99.79 254.53 97.04 252.46 97.22 C 248.74 97.35 244.61 96.30 241.19 98.11 Z" />
</g>
</svg>
