<?xml version="1.0" encoding="UTF-8" ?>
<!DOCTYPE svg PUBLIC "-//W3C//DTD SVG 1.1//EN" "http://www.w3.org/Graphics/SVG/1.1/DTD/svg11.dtd">
<svg width="351pt" height="343pt" viewBox="0 0 351 343" version="1.1" xmlns="http://www.w3.org/2000/svg">
<g id="#e5e5e5ff">
</g>
<g id="#a3c3bcff">
<path fill="#a3c3bc" opacity="1.00" d=" M 39.68 0.00 L 41.48 0.00 L 41.54 0.87 L 40.75 1.21 C 40.48 0.91 39.95 0.30 39.68 0.00 Z" />
<path fill="#a3c3bc" opacity="1.00" d=" M 126.19 197.03 C 126.71 195.46 128.77 196.20 129.99 195.97 C 159.27 196.12 188.56 195.82 217.84 196.13 C 218.04 199.82 218.01 203.52 218.01 207.22 C 216.35 207.38 214.68 207.50 213.02 207.52 C 185.67 207.50 158.32 207.48 130.97 207.53 C 129.30 207.52 127.63 207.36 125.98 207.14 C 126.05 203.77 125.84 200.39 126.19 197.03 Z" />
<path fill="#a3c3bc" opacity="1.00" d=" M 126.04 234.94 C 156.68 234.66 187.34 234.67 217.98 234.94 C 217.98 238.65 218.08 242.36 218.11 246.07 C 187.41 246.32 156.69 246.34 125.99 246.06 C 126.02 242.35 126.02 238.64 126.04 234.94 Z" />
</g>
<g id="#040404ff">
<path fill="#040404" opacity="1.00" d=" M 146.85 6.64 C 152.76 4.96 158.72 2.78 164.96 3.10 C 169.30 3.13 173.63 3.13 177.96 3.11 C 186.56 2.85 194.97 5.30 203.02 8.09 C 235.37 19.86 259.55 50.51 264.14 84.55 C 275.70 89.81 288.62 93.92 297.16 103.86 C 305.77 113.73 307.23 127.23 310.36 139.44 C 319.38 145.06 328.45 150.69 336.51 157.66 C 340.19 161.64 342.04 166.86 343.92 171.84 C 345.30 175.07 344.92 178.67 344.88 182.10 C 343.51 186.49 341.53 190.67 339.82 194.94 C 339.46 194.85 338.74 194.68 338.38 194.60 C 338.50 194.82 338.74 195.28 338.86 195.50 C 336.41 202.54 330.07 207.12 325.93 213.12 C 328.57 223.10 332.82 233.40 330.41 243.87 C 328.68 249.60 325.58 255.15 320.74 258.81 C 314.43 263.78 306.72 266.35 299.45 269.53 C 297.32 270.23 296.25 272.29 294.92 273.92 C 281.85 290.82 262.90 303.25 241.92 307.66 C 236.29 315.30 231.47 323.70 224.63 330.36 C 223.20 330.58 222.19 331.53 221.37 332.67 C 216.20 334.79 210.68 336.29 205.04 336.06 C 201.77 336.30 198.83 334.55 195.60 334.50 C 191.89 332.74 187.54 331.20 185.47 327.38 C 179.59 315.76 177.18 302.76 175.98 289.89 C 173.29 289.99 170.59 290.08 167.90 290.16 C 166.95 302.02 164.78 313.93 159.91 324.86 C 157.75 331.25 150.72 333.63 145.16 336.25 C 135.12 339.32 124.72 334.42 117.21 327.90 C 111.96 321.37 107.15 314.48 102.02 307.87 C 79.71 302.69 59.65 289.06 46.44 270.38 C 39.00 267.01 31.08 264.47 24.45 259.58 C 17.15 254.20 12.42 245.15 13.01 236.01 C 13.42 228.27 16.08 220.91 17.76 213.41 C 11.89 205.10 5.84 196.77 1.41 187.60 C 1.18 182.22 1.02 176.76 1.51 171.41 C 6.09 156.11 20.00 146.14 33.83 139.65 C 35.93 130.98 37.27 122.05 40.81 113.80 C 43.65 106.91 48.67 100.98 54.84 96.84 C 62.54 91.50 71.47 88.45 79.96 84.66 C 84.28 68.73 88.46 52.08 98.81 38.82 C 110.60 23.01 128.16 12.35 146.85 6.64 M 151.02 16.28 C 130.69 21.52 113.21 35.61 102.37 53.41 C 93.58 68.13 89.65 86.01 92.94 102.97 C 95.22 120.73 104.97 137.01 118.46 148.59 C 130.67 159.08 145.69 166.51 161.59 169.16 C 160.61 166.12 159.03 163.33 157.47 160.56 C 148.59 144.55 139.02 128.94 129.90 113.07 C 127.94 109.69 126.21 106.15 123.83 103.03 C 119.10 102.82 114.41 102.05 109.67 101.94 C 109.67 98.56 109.66 95.19 109.74 91.82 C 123.42 91.86 137.09 91.96 150.77 92.03 C 154.01 87.22 156.18 81.82 158.86 76.71 C 162.65 68.72 167.75 60.77 175.93 56.72 C 177.68 66.21 178.64 75.82 179.78 85.39 C 180.06 87.96 180.00 90.63 181.03 93.07 C 198.74 91.35 216.55 91.94 234.31 91.81 C 234.29 95.21 234.34 98.61 234.53 102.00 C 229.76 102.09 224.98 102.34 220.24 102.96 C 210.56 119.42 200.76 135.81 191.23 152.36 C 188.23 157.79 185.01 163.11 182.45 168.77 C 183.56 168.83 184.67 168.81 185.77 168.70 C 200.94 165.49 215.05 157.97 226.59 147.67 C 241.94 133.86 252.33 113.84 252.06 92.93 C 252.83 79.78 249.36 66.58 242.87 55.17 C 233.59 38.82 218.56 25.77 201.03 18.95 C 185.23 12.60 167.44 12.36 151.02 16.28 M 156.46 101.25 C 150.19 102.49 143.62 101.68 137.45 103.50 C 137.37 103.52 137.21 103.57 137.13 103.59 C 137.84 106.33 139.63 108.59 141.01 111.01 C 150.48 126.89 159.82 142.84 169.21 158.75 C 170.12 160.31 171.24 161.72 172.35 163.14 C 184.20 142.60 196.86 122.51 207.97 101.55 C 203.16 99.71 197.41 101.13 193.77 104.72 C 186.33 111.10 182.99 121.70 173.48 125.71 C 171.51 111.90 170.41 97.98 168.73 84.14 C 164.08 89.42 162.27 96.97 156.46 101.25 M 52.23 115.46 C 45.86 125.76 46.95 138.33 45.17 149.82 C 35.49 151.62 25.69 155.25 18.71 162.46 C 12.34 168.91 10.81 179.11 13.26 187.59 C 17.12 198.71 28.14 204.57 37.77 209.98 C 33.37 215.88 28.26 221.42 25.28 228.22 C 21.80 236.23 24.49 246.35 31.41 251.64 C 37.92 256.17 46.08 257.05 53.70 258.37 C 64.30 280.53 87.40 296.51 112.15 297.07 C 113.94 303.03 116.12 309.00 119.82 314.06 C 123.17 318.15 127.25 322.22 132.66 323.23 C 139.93 325.23 148.75 322.31 152.23 315.32 C 155.73 308.23 155.90 300.04 156.02 292.29 C 150.19 289.52 144.65 286.22 138.92 283.27 C 144.48 281.71 150.13 280.35 155.90 279.85 C 172.99 277.53 190.16 280.41 207.30 280.02 C 206.45 283.40 205.46 286.74 204.77 290.16 C 199.49 290.11 194.21 289.82 188.95 290.10 C 187.38 291.20 188.39 293.47 188.16 295.07 C 188.80 302.48 188.48 310.57 192.83 317.01 C 198.31 324.99 210.60 325.77 218.09 320.25 C 225.72 314.95 229.24 305.84 231.85 297.29 C 256.52 296.25 279.92 280.78 290.37 258.37 C 296.64 257.15 303.17 256.72 309.08 254.13 C 317.91 250.33 323.38 239.25 319.97 230.06 C 317.23 222.31 311.22 216.45 306.33 210.05 C 315.14 205.46 324.23 200.01 329.21 191.06 C 333.46 183.54 332.44 174.01 328.56 166.58 C 322.47 156.15 310.06 152.58 299.06 149.98 C 298.10 144.06 298.06 138.04 297.09 132.13 C 296.04 123.97 293.43 115.48 287.28 109.69 C 281.18 102.69 271.97 100.06 263.84 96.23 C 262.53 100.07 262.43 104.21 261.31 108.12 C 256.01 131.16 241.70 151.92 222.22 165.28 C 224.73 181.40 229.06 197.36 229.13 213.77 C 227.37 215.86 225.64 217.99 223.98 220.16 C 228.56 230.31 229.18 241.70 229.06 252.69 C 222.96 258.37 218.46 265.82 211.20 270.19 C 207.30 272.65 202.55 272.83 198.09 272.99 C 185.41 273.12 172.73 273.87 160.05 273.25 C 152.37 272.78 144.54 273.65 136.98 272.00 C 127.19 268.97 122.28 259.21 115.18 252.65 C 115.33 245.10 115.60 237.55 115.50 230.00 C 115.27 226.64 119.22 225.07 119.93 222.09 C 118.24 217.86 116.16 213.67 115.91 209.04 C 114.39 194.17 120.16 180.02 122.06 165.47 C 113.81 159.67 106.24 152.79 100.22 144.68 C 89.21 130.39 82.62 113.04 79.95 95.28 C 69.94 100.72 58.36 105.22 52.23 115.46 M 130.52 171.02 C 131.02 175.83 132.63 180.42 134.13 184.98 C 152.09 185.87 170.07 186.01 188.04 185.30 C 196.21 185.03 204.38 185.47 212.55 185.07 C 212.44 180.41 212.75 175.73 212.22 171.08 C 186.33 181.90 156.53 180.96 130.52 171.02 M 126.19 197.03 C 125.84 200.39 126.05 203.77 125.98 207.14 C 127.63 207.36 129.30 207.52 130.97 207.53 C 158.32 207.48 185.67 207.50 213.02 207.52 C 214.68 207.50 216.35 207.38 218.01 207.22 C 218.01 203.52 218.04 199.82 217.84 196.13 C 188.56 195.82 159.27 196.12 129.99 195.97 C 128.77 196.20 126.71 195.46 126.19 197.03 M 151.02 218.18 C 143.33 219.15 135.55 218.71 127.87 219.78 C 131.46 221.24 135.23 222.16 139.06 222.75 C 164.50 227.23 190.34 223.84 215.89 222.51 C 207.04 218.89 197.35 218.22 187.91 217.58 C 175.62 216.37 163.31 217.97 151.02 218.18 M 126.04 234.94 C 126.02 238.64 126.02 242.35 125.99 246.06 C 156.69 246.34 187.41 246.32 218.11 246.07 C 218.08 242.36 217.98 238.65 217.98 234.94 C 187.34 234.67 156.68 234.66 126.04 234.94 M 133.32 258.25 C 139.58 261.76 146.93 262.55 153.97 262.97 C 166.33 262.99 178.70 263.05 191.06 262.94 C 197.89 262.39 205.04 261.71 211.08 258.20 C 197.47 256.44 183.71 256.96 170.03 256.47 C 157.80 257.24 145.43 256.17 133.32 258.25 Z" />
<path fill="#040404" opacity="1.00" d=" M 72.36 9.00 C 78.47 14.81 84.58 20.64 90.78 26.37 C 87.83 29.22 84.81 32.02 81.71 34.72 C 77.42 29.66 71.47 25.76 68.73 19.56 C 66.83 15.58 69.56 11.65 72.36 9.00 Z" />
<path fill="#040404" opacity="1.00" d=" M 264.03 15.99 C 266.18 13.99 268.79 11.92 271.89 12.03 C 275.00 12.41 276.65 15.32 278.28 17.63 C 272.95 23.87 266.94 29.47 260.96 35.07 C 258.51 31.92 256.05 28.77 253.54 25.67 C 257.44 22.90 260.61 19.30 264.03 15.99 Z" />
<path fill="#040404" opacity="1.00" d=" M 55.76 47.85 C 62.10 45.71 68.91 47.04 75.46 46.55 C 75.26 50.68 75.00 54.81 74.83 58.95 C 66.78 58.67 58.74 58.34 50.69 57.94 C 50.41 54.01 51.64 49.30 55.76 47.85 Z" />
<path fill="#040404" opacity="1.00" d=" M 268.68 46.50 C 275.36 47.09 282.42 45.59 288.82 48.09 C 292.74 49.63 293.53 54.23 293.49 57.95 C 285.38 58.31 277.27 58.68 269.15 58.94 C 269.08 54.79 268.88 50.64 268.68 46.50 Z" />
<path fill="#040404" opacity="1.00" d=" M 66.41 151.38 C 71.03 147.95 76.69 146.56 82.13 145.00 C 78.14 159.94 65.01 170.21 51.14 175.60 C 52.82 165.96 58.00 156.69 66.41 151.38 Z" />
<path fill="#040404" opacity="1.00" d=" M 262.68 145.05 C 272.29 147.31 281.75 152.32 287.19 160.82 C 290.36 165.14 291.80 170.37 292.99 175.52 C 279.53 170.04 265.23 160.47 262.68 145.05 Z" />
<path fill="#040404" opacity="1.00" d=" M 73.84 189.97 C 87.92 194.82 101.11 205.19 105.07 220.10 C 96.36 217.84 87.72 214.00 81.73 207.06 C 77.58 202.21 75.08 196.19 73.84 189.97 Z" />
<path fill="#040404" opacity="1.00" d=" M 238.85 219.46 C 243.63 205.14 256.14 194.58 270.25 189.99 C 268.53 199.52 263.04 208.58 254.62 213.58 C 249.90 216.74 244.43 218.58 238.85 219.46 Z" />
<path fill="#040404" opacity="1.00" d=" M 89.36 245.23 C 93.53 242.36 98.30 240.61 103.08 239.05 C 103.07 242.43 103.07 245.81 103.07 249.20 C 95.32 253.48 88.82 259.83 84.09 267.30 C 80.69 267.27 77.29 267.44 73.89 267.55 C 76.45 258.71 81.39 250.18 89.36 245.23 Z" />
<path fill="#040404" opacity="1.00" d=" M 241.27 238.68 C 250.46 241.80 259.40 247.04 264.76 255.36 C 267.25 259.01 268.97 263.12 270.35 267.31 C 266.67 267.25 262.99 267.15 259.31 267.08 C 255.21 259.60 248.82 253.29 240.95 249.88 C 241.13 246.15 241.26 242.41 241.27 238.68 Z" />
</g>
<g id="#fff200ff">
<path fill="#fff200" opacity="1.00" d=" M 151.02 16.28 C 167.44 12.36 185.23 12.60 201.03 18.95 C 218.56 25.77 233.59 38.82 242.87 55.17 C 249.36 66.58 252.83 79.78 252.06 92.93 C 252.33 113.84 241.94 133.86 226.59 147.67 C 215.05 157.97 200.94 165.49 185.77 168.70 C 184.67 168.81 183.56 168.83 182.45 168.77 C 185.01 163.11 188.23 157.79 191.23 152.36 C 200.76 135.81 210.56 119.42 220.24 102.96 C 224.98 102.34 229.76 102.09 234.53 102.00 C 234.34 98.61 234.29 95.21 234.31 91.81 C 216.55 91.94 198.74 91.35 181.03 93.07 C 180.00 90.63 180.06 87.96 179.78 85.39 C 178.64 75.82 177.68 66.21 175.93 56.72 C 167.75 60.77 162.65 68.72 158.86 76.71 C 156.18 81.82 154.01 87.22 150.77 92.03 C 137.09 91.96 123.42 91.86 109.74 91.82 C 109.66 95.19 109.67 98.56 109.67 101.94 C 114.41 102.05 119.10 102.82 123.83 103.03 C 126.21 106.15 127.94 109.69 129.90 113.07 C 139.02 128.94 148.59 144.55 157.47 160.56 C 159.03 163.33 160.61 166.12 161.59 169.16 C 145.69 166.51 130.67 159.08 118.46 148.59 C 104.97 137.01 95.22 120.73 92.94 102.97 C 89.65 86.01 93.58 68.13 102.37 53.41 C 113.21 35.61 130.69 21.52 151.02 16.28 Z" />
<path fill="#fff200" opacity="1.00" d=" M 156.46 101.25 C 162.27 96.97 164.08 89.42 168.73 84.14 C 170.41 97.98 171.51 111.90 173.48 125.71 C 182.99 121.70 186.33 111.10 193.77 104.72 C 197.41 101.13 203.16 99.71 207.97 101.55 C 196.86 122.51 184.20 142.60 172.35 163.14 C 171.24 161.72 170.12 160.31 169.21 158.75 C 159.82 142.84 150.48 126.89 141.01 111.01 C 139.63 108.59 137.84 106.33 137.13 103.59 C 137.21 103.57 137.37 103.52 137.45 103.50 C 143.62 101.68 150.19 102.49 156.46 101.25 Z" />
</g>
<g id="#c3c3c3ff">
<path fill="#c3c3c3" opacity="1.00" d=" M 52.23 115.46 C 58.36 105.22 69.94 100.72 79.95 95.28 C 82.62 113.04 89.21 130.39 100.22 144.68 C 106.24 152.79 113.81 159.67 122.06 165.47 C 120.16 180.02 114.39 194.17 115.91 209.04 C 116.16 213.67 118.24 217.86 119.93 222.09 C 119.22 225.07 115.27 226.64 115.50 230.00 C 115.60 237.55 115.33 245.10 115.18 252.65 C 122.28 259.21 127.19 268.97 136.98 272.00 C 144.54 273.65 152.37 272.78 160.05 273.25 C 172.73 273.87 185.41 273.12 198.09 272.99 C 202.55 272.83 207.30 272.65 211.20 270.19 C 218.46 265.82 222.96 258.37 229.06 252.69 C 229.18 241.70 228.56 230.31 223.98 220.16 C 225.64 217.99 227.37 215.86 229.13 213.77 C 229.06 197.36 224.73 181.40 222.22 165.28 C 241.70 151.92 256.01 131.16 261.31 108.12 C 262.43 104.21 262.53 100.07 263.84 96.23 C 271.97 100.06 281.18 102.69 287.28 109.69 C 293.43 115.48 296.04 123.97 297.09 132.13 C 298.06 138.04 298.10 144.06 299.06 149.98 C 310.06 152.58 322.47 156.15 328.56 166.58 C 332.44 174.01 333.46 183.54 329.21 191.06 C 324.23 200.01 315.14 205.46 306.33 210.05 C 311.22 216.45 317.23 222.31 319.97 230.06 C 323.38 239.25 317.91 250.33 309.08 254.13 C 303.17 256.72 296.64 257.15 290.37 258.37 C 279.92 280.78 256.52 296.25 231.85 297.29 C 229.24 305.84 225.72 314.95 218.09 320.25 C 210.60 325.77 198.31 324.99 192.83 317.01 C 188.48 310.57 188.80 302.48 188.16 295.07 C 188.39 293.47 187.38 291.20 188.95 290.10 C 194.21 289.82 199.49 290.11 204.77 290.16 C 205.46 286.74 206.45 283.40 207.30 280.02 C 190.16 280.41 172.99 277.53 155.90 279.85 C 150.13 280.35 144.48 281.71 138.92 283.27 C 144.65 286.22 150.19 289.52 156.02 292.29 C 155.90 300.04 155.73 308.23 152.23 315.32 C 148.75 322.31 139.93 325.23 132.66 323.23 C 127.25 322.22 123.17 318.15 119.82 314.06 C 116.12 309.00 113.94 303.03 112.15 297.07 C 87.40 296.51 64.30 280.53 53.70 258.37 C 46.08 257.05 37.92 256.17 31.41 251.64 C 24.49 246.35 21.80 236.23 25.28 228.22 C 28.26 221.42 33.37 215.88 37.77 209.98 C 28.14 204.57 17.12 198.71 13.26 187.59 C 10.81 179.11 12.34 168.91 18.71 162.46 C 25.69 155.25 35.49 151.62 45.17 149.82 C 46.95 138.33 45.86 125.76 52.23 115.46 M 66.41 151.38 C 58.00 156.69 52.82 165.96 51.14 175.60 C 65.01 170.21 78.14 159.94 82.13 145.00 C 76.69 146.56 71.03 147.95 66.41 151.38 M 262.68 145.05 C 265.23 160.47 279.53 170.04 292.99 175.52 C 291.80 170.37 290.36 165.14 287.19 160.82 C 281.75 152.32 272.29 147.31 262.68 145.05 M 73.84 189.97 C 75.08 196.19 77.58 202.21 81.73 207.06 C 87.72 214.00 96.36 217.84 105.07 220.10 C 101.11 205.19 87.92 194.82 73.84 189.97 M 238.85 219.46 C 244.43 218.58 249.90 216.74 254.62 213.58 C 263.04 208.58 268.53 199.52 270.25 189.99 C 256.14 194.58 243.63 205.14 238.85 219.46 M 89.36 245.23 C 81.39 250.18 76.45 258.71 73.89 267.55 C 77.29 267.44 80.69 267.27 84.09 267.30 C 88.82 259.83 95.32 253.48 103.07 249.20 C 103.07 245.81 103.07 242.43 103.08 239.05 C 98.30 240.61 93.53 242.36 89.36 245.23 M 241.27 238.68 C 241.26 242.41 241.13 246.15 240.95 249.88 C 248.82 253.29 255.21 259.60 259.31 267.08 C 262.99 267.15 266.67 267.25 270.35 267.31 C 268.97 263.12 267.25 259.01 264.76 255.36 C 259.40 247.04 250.46 241.80 241.27 238.68 Z" />
</g>
<g id="#b0a686ff">
<path fill="#b0a686" opacity="1.00" d=" M 137.13 103.59 C 137.21 103.57 137.37 103.52 137.45 103.50 C 137.37 103.52 137.21 103.57 137.13 103.59 Z" />
<path fill="#b0a686" opacity="1.00" d=" M 130.52 171.02 C 156.53 180.96 186.33 181.90 212.22 171.08 C 212.75 175.73 212.44 180.41 212.55 185.07 C 204.38 185.47 196.21 185.03 188.04 185.30 C 170.07 186.01 152.09 185.87 134.13 184.98 C 132.63 180.42 131.02 175.83 130.52 171.02 Z" />
<path fill="#b0a686" opacity="1.00" d=" M 151.02 218.18 C 163.31 217.97 175.62 216.37 187.91 217.58 C 197.35 218.22 207.04 218.89 215.89 222.51 C 190.34 223.84 164.50 227.23 139.06 222.75 C 135.23 222.16 131.46 221.24 127.87 219.78 C 135.55 218.71 143.33 219.15 151.02 218.18 Z" />
<path fill="#b0a686" opacity="1.00" d=" M 133.32 258.25 C 145.43 256.17 157.80 257.24 170.03 256.47 C 183.71 256.96 197.47 256.44 211.08 258.20 C 205.04 261.71 197.89 262.39 191.06 262.94 C 178.70 263.05 166.33 262.99 153.97 262.97 C 146.93 262.55 139.58 261.76 133.32 258.25 Z" />
</g>
</svg>
