<?xml version="1.0" encoding="UTF-8" ?>
<!DOCTYPE svg PUBLIC "-//W3C//DTD SVG 1.1//EN" "http://www.w3.org/Graphics/SVG/1.1/DTD/svg11.dtd">
<svg width="347pt" height="348pt" viewBox="0 0 347 348" version="1.1" xmlns="http://www.w3.org/2000/svg">
<g id="#e5e5e5ff">
<path fill="#e5e5e5" opacity="1.00" d=" M 13.62 14.37 C 75.28 14.38 136.95 14.37 198.62 14.38 C 198.63 23.29 198.62 32.20 198.62 41.12 C 207.99 41.92 217.37 42.39 226.76 42.79 C 226.74 85.66 226.75 128.53 226.75 171.40 C 205.23 171.33 183.71 171.42 162.19 171.35 C 156.69 163.98 151.14 156.65 145.72 149.22 C 105.57 149.04 65.41 148.35 25.27 149.63 C 25.09 157.06 24.86 164.48 24.73 171.90 C 21.13 171.07 17.52 170.32 13.89 169.62 C 13.07 117.88 13.76 66.12 13.62 14.37 M 24.59 19.87 C 24.82 23.57 25.05 27.28 25.25 30.98 C 56.67 30.97 88.10 30.80 119.52 31.12 C 119.80 27.37 120.07 23.63 120.31 19.88 C 88.40 19.86 56.49 19.88 24.59 19.87 M 25.15 36.77 C 24.92 40.43 24.70 44.09 24.48 47.75 C 39.44 47.79 54.39 47.90 69.35 47.99 C 69.45 44.29 69.59 40.59 69.76 36.89 C 54.89 36.91 40.03 36.65 25.15 36.77 M 161.42 48.58 C 148.73 51.42 137.35 59.77 131.21 71.28 C 126.37 79.99 124.75 90.33 126.23 100.15 C 128.78 115.69 140.25 129.26 154.91 134.86 C 163.57 138.31 173.26 138.24 182.24 136.14 C 203.92 130.56 219.15 106.85 214.62 84.80 C 211.08 60.73 184.98 43.47 161.42 48.58 M 68.83 92.18 C 61.18 90.34 53.49 88.64 45.83 86.81 C 38.09 92.58 30.23 98.18 22.42 103.85 C 24.14 107.38 25.96 110.86 27.91 114.27 C 34.67 109.05 41.58 104.04 48.32 98.80 C 55.56 100.64 62.81 102.41 70.03 104.32 C 85.51 94.73 101.63 86.09 116.18 75.06 C 114.56 72.10 113.05 69.08 111.43 66.12 C 97.27 74.89 82.91 83.30 68.83 92.18 Z" />
<path fill="#e5e5e5" opacity="1.00" d=" M 274.10 58.16 C 280.50 43.77 291.61 32.27 299.71 18.90 C 307.86 32.13 317.68 44.30 325.22 57.92 C 326.05 59.48 326.95 61.12 326.86 62.95 C 328.53 132.67 326.92 202.40 327.50 272.12 C 321.92 272.11 316.33 272.11 310.75 272.28 C 310.50 247.89 311.68 223.45 309.63 199.11 C 298.87 199.38 288.11 199.65 277.36 200.17 C 276.66 224.16 276.99 248.15 276.87 272.14 C 275.08 272.13 273.29 272.12 271.50 272.12 C 271.67 203.39 270.98 134.66 271.76 65.93 C 271.78 63.17 273.09 60.66 274.10 58.16 Z" />
</g>
<g id="#000000ff">
<path fill="#000000" opacity="1.00" d=" M 2.25 3.00 C 70.03 3.00 137.82 3.00 205.60 3.00 C 215.71 12.35 226.71 21.03 234.69 32.40 C 235.76 34.10 237.18 35.81 237.25 37.91 C 239.25 81.67 237.23 125.48 237.97 169.25 C 241.34 172.14 245.14 174.49 248.63 177.24 C 249.44 221.82 248.49 266.41 249.22 310.99 C 249.31 320.64 248.58 330.52 244.72 339.49 C 165.48 339.53 86.24 339.48 7.00 339.51 C 4.94 339.68 1.97 338.40 2.27 335.98 C 2.22 224.99 2.26 113.99 2.25 3.00 M 13.62 14.37 C 13.76 66.12 13.07 117.88 13.89 169.62 C 17.52 170.32 21.13 171.07 24.73 171.90 C 24.86 164.48 25.09 157.06 25.27 149.63 C 65.41 148.35 105.57 149.04 145.72 149.22 C 151.14 156.65 156.69 163.98 162.19 171.35 C 183.71 171.42 205.23 171.33 226.75 171.40 C 226.75 128.53 226.74 85.66 226.76 42.79 C 217.37 42.39 207.99 41.92 198.62 41.12 C 198.62 32.20 198.63 23.29 198.62 14.38 C 136.95 14.37 75.28 14.38 13.62 14.37 M 34.89 160.59 C 35.31 163.99 35.70 167.41 36.23 170.80 C 36.48 171.03 36.98 171.49 37.23 171.72 C 45.15 171.97 53.09 171.73 61.01 171.81 C 67.81 171.72 74.66 172.11 81.43 171.25 C 79.93 168.35 78.27 165.37 75.52 163.48 C 68.83 158.39 59.81 158.73 51.87 159.47 C 46.25 160.38 40.52 159.81 34.89 160.59 M 86.01 159.66 C 88.78 163.65 91.39 167.78 94.45 171.56 C 99.48 172.28 104.65 171.88 109.73 171.82 C 111.50 170.79 110.98 168.58 110.93 166.89 C 110.53 163.36 107.20 161.03 103.98 160.25 C 98.08 159.04 91.98 159.07 86.01 159.66 M 120.42 160.21 C 122.89 164.17 125.64 167.96 128.26 171.81 C 134.76 171.87 141.25 172.08 147.74 171.93 C 145.80 167.73 143.22 163.88 140.72 160.00 C 134.15 160.17 127.59 159.54 121.04 159.41 C 120.88 159.61 120.57 160.01 120.42 160.21 M 13.17 184.88 C 12.95 232.23 13.19 279.59 13.20 326.95 C 13.01 328.44 14.70 329.07 15.92 328.83 C 89.99 328.74 164.06 329.21 238.13 328.64 C 238.22 279.78 238.31 230.91 238.08 182.05 C 163.74 182.18 89.40 181.96 15.06 182.11 C 13.52 181.84 12.99 183.70 13.17 184.88 Z" />
<path fill="#000000" opacity="1.00" d=" M 296.89 3.00 C 298.49 3.00 300.10 3.00 301.71 3.00 C 314.25 19.76 325.71 37.29 336.93 54.96 C 337.91 56.46 339.01 58.05 338.76 59.95 C 338.74 153.13 338.76 246.32 338.75 339.50 C 312.72 339.50 286.68 339.50 260.65 339.50 C 259.41 253.34 260.88 167.16 259.93 81.00 C 258.63 71.02 260.44 60.80 264.70 51.72 C 272.92 33.90 287.13 19.88 296.89 3.00 M 274.10 58.16 C 273.09 60.66 271.78 63.17 271.76 65.93 C 270.98 134.66 271.67 203.39 271.50 272.12 C 273.29 272.12 275.08 272.13 276.87 272.14 C 276.99 248.15 276.66 224.16 277.36 200.17 C 288.11 199.65 298.87 199.38 309.63 199.11 C 311.68 223.45 310.50 247.89 310.75 272.28 C 316.33 272.11 321.92 272.11 327.50 272.12 C 326.92 202.40 328.53 132.67 326.86 62.95 C 326.95 61.12 326.05 59.48 325.22 57.92 C 317.68 44.30 307.86 32.13 299.71 18.90 C 291.61 32.27 280.50 43.77 274.10 58.16 M 287.96 210.15 C 287.66 232.76 288.47 255.40 287.59 278.01 C 287.43 279.50 287.37 281.08 286.60 282.41 C 281.44 283.35 276.11 282.59 270.95 283.70 C 271.12 298.76 270.85 313.82 271.09 328.89 C 287.39 329.19 303.69 328.86 319.99 329.04 C 322.54 329.02 325.11 329.13 327.63 328.67 C 328.55 319.83 327.73 310.87 328.00 301.98 C 327.77 295.79 328.52 289.55 327.65 283.40 C 318.85 282.42 309.92 283.28 301.07 283.00 C 300.49 278.70 300.02 274.37 300.01 270.03 C 299.95 249.98 300.04 229.94 299.98 209.90 C 295.97 209.93 291.96 210.00 287.96 210.15 Z" />
<path fill="#000000" opacity="1.00" d=" M 24.59 19.87 C 56.49 19.88 88.40 19.86 120.31 19.88 C 120.07 23.63 119.80 27.37 119.52 31.12 C 88.10 30.80 56.67 30.97 25.25 30.98 C 25.05 27.28 24.82 23.57 24.59 19.87 Z" />
<path fill="#000000" opacity="1.00" d=" M 25.15 36.77 C 40.03 36.65 54.89 36.91 69.76 36.89 C 69.59 40.59 69.45 44.29 69.35 47.99 C 54.39 47.90 39.44 47.79 24.48 47.75 C 24.70 44.09 24.92 40.43 25.15 36.77 Z" />
<path fill="#000000" opacity="1.00" d=" M 161.42 48.58 C 184.98 43.47 211.08 60.73 214.62 84.80 C 219.15 106.85 203.92 130.56 182.24 136.14 C 173.26 138.24 163.57 138.31 154.91 134.86 C 140.25 129.26 128.78 115.69 126.23 100.15 C 124.75 90.33 126.37 79.99 131.21 71.28 C 137.35 59.77 148.73 51.42 161.42 48.58 M 135.77 87.05 C 145.63 87.18 155.51 88.02 165.37 87.48 C 164.73 77.61 165.66 67.61 164.22 57.80 C 151.16 62.95 140.17 73.58 135.77 87.05 M 175.88 59.35 C 175.81 66.03 175.70 72.72 175.97 79.40 C 180.86 74.63 185.70 69.80 190.46 64.90 C 185.69 62.80 180.76 61.13 175.88 59.35 M 172.69 97.81 C 160.46 98.32 148.18 97.47 135.97 98.47 C 140.40 114.17 155.19 127.33 171.96 126.96 C 183.47 126.15 195.05 119.68 200.22 109.09 C 205.89 97.69 205.08 83.76 199.49 72.49 C 190.12 80.45 181.40 89.13 172.69 97.81 Z" />
<path fill="#000000" opacity="1.00" d=" M 68.83 92.18 C 82.91 83.30 97.27 74.89 111.43 66.12 C 113.05 69.08 114.56 72.10 116.18 75.06 C 101.63 86.09 85.51 94.73 70.03 104.32 C 62.81 102.41 55.56 100.64 48.32 98.80 C 41.58 104.04 34.67 109.05 27.91 114.27 C 25.96 110.86 24.14 107.38 22.42 103.85 C 30.23 98.18 38.09 92.58 45.83 86.81 C 53.49 88.64 61.18 90.34 68.83 92.18 Z" />
<path fill="#000000" opacity="1.00" d=" M 25.04 195.28 C 43.71 194.94 62.36 194.08 81.02 193.99 C 124.68 193.89 168.33 194.08 211.98 194.44 C 216.59 194.17 221.22 194.20 225.84 194.13 C 226.21 205.02 226.07 215.91 226.00 226.80 C 162.01 227.29 98.02 226.83 34.04 227.09 C 31.13 227.30 28.50 226.00 25.93 224.86 C 24.46 215.07 25.06 205.14 25.04 195.28 M 44.01 204.76 C 41.55 204.94 38.77 204.30 36.55 205.55 C 36.06 209.21 34.81 213.32 36.11 216.87 C 94.08 216.81 152.07 216.82 210.04 216.86 C 212.06 216.81 214.07 216.62 216.06 216.30 C 216.00 212.50 216.00 208.71 216.00 204.91 C 205.02 204.68 194.04 204.84 183.05 204.82 C 149.07 204.01 115.05 204.58 81.06 204.41 C 68.70 204.15 56.37 205.14 44.01 204.76 Z" />
<path fill="#000000" opacity="1.00" d=" M 137.85 261.99 C 155.56 261.85 173.27 260.77 190.99 261.48 C 202.58 261.44 214.17 261.74 225.76 261.83 C 226.31 279.17 226.90 296.52 226.07 313.87 C 223.66 316.15 220.32 316.82 217.10 316.80 C 197.08 316.79 177.05 316.82 157.03 316.79 C 150.75 316.47 144.46 316.45 138.17 316.58 C 136.96 298.41 136.50 280.17 137.85 261.99 M 147.93 272.02 C 147.65 283.41 147.87 294.80 147.81 306.19 C 170.47 306.14 193.14 306.32 215.80 306.10 C 215.58 294.74 216.28 283.32 215.43 271.99 C 192.93 272.04 170.43 271.97 147.93 272.02 Z" />
</g>
<g id="#fdb45cff">
<path fill="#fdb45c" opacity="1.00" d=" M 135.77 87.05 C 140.17 73.58 151.16 62.95 164.22 57.80 C 165.66 67.61 164.73 77.61 165.37 87.48 C 155.51 88.02 145.63 87.18 135.77 87.05 Z" />
</g>
<g id="#74d0aeff">
<path fill="#74d0ae" opacity="1.00" d=" M 175.88 59.35 C 180.76 61.13 185.69 62.80 190.46 64.90 C 185.70 69.80 180.86 74.63 175.97 79.40 C 175.70 72.72 175.81 66.03 175.88 59.35 Z" />
<path fill="#74d0ae" opacity="1.00" d=" M 120.42 160.21 C 120.57 160.01 120.88 159.61 121.04 159.41 C 127.59 159.54 134.15 160.17 140.72 160.00 C 143.22 163.88 145.80 167.73 147.74 171.93 C 141.25 172.08 134.76 171.87 128.26 171.81 C 125.64 167.96 122.89 164.17 120.42 160.21 Z" />
</g>
<g id="#f7464aff">
<path fill="#f7464a" opacity="1.00" d=" M 172.69 97.81 C 181.40 89.13 190.12 80.45 199.49 72.49 C 205.08 83.76 205.89 97.69 200.22 109.09 C 195.05 119.68 183.47 126.15 171.96 126.96 C 155.19 127.33 140.40 114.17 135.97 98.47 C 148.18 97.47 160.46 98.32 172.69 97.81 Z" />
</g>
<g id="#8cfffbff">
<path fill="#8cfffb" opacity="1.00" d=" M 34.89 160.59 C 40.52 159.81 46.25 160.38 51.87 159.47 C 59.81 158.73 68.83 158.39 75.52 163.48 C 78.27 165.37 79.93 168.35 81.43 171.25 C 74.66 172.11 67.81 171.72 61.01 171.81 C 53.09 171.73 45.15 171.97 37.23 171.72 C 36.98 171.49 36.48 171.03 36.23 170.80 C 35.70 167.41 35.31 163.99 34.89 160.59 Z" />
<path fill="#8cfffb" opacity="1.00" d=" M 147.93 272.02 C 170.43 271.97 192.93 272.04 215.43 271.99 C 216.28 283.32 215.58 294.74 215.80 306.10 C 193.14 306.32 170.47 306.14 147.81 306.19 C 147.87 294.80 147.65 283.41 147.93 272.02 Z" />
</g>
<g id="#ffaec8ff">
<path fill="#ffaec8" opacity="1.00" d=" M 86.01 159.66 C 91.98 159.07 98.08 159.04 103.98 160.25 C 107.20 161.03 110.53 163.36 110.93 166.89 C 110.98 168.58 111.50 170.79 109.73 171.82 C 104.65 171.88 99.48 172.28 94.45 171.56 C 91.39 167.78 88.78 163.65 86.01 159.66 Z" />
</g>
<g id="#ecdda9ff">
<path fill="#ecdda9" opacity="1.00" d=" M 13.17 184.88 C 12.99 183.70 13.52 181.84 15.06 182.11 C 89.40 181.96 163.74 182.18 238.08 182.05 C 238.31 230.91 238.22 279.78 238.13 328.64 C 164.06 329.21 89.99 328.74 15.92 328.83 C 14.70 329.07 13.01 328.44 13.20 326.95 C 13.19 279.59 12.95 232.23 13.17 184.88 M 25.04 195.28 C 25.06 205.14 24.46 215.07 25.93 224.86 C 28.50 226.00 31.13 227.30 34.04 227.09 C 98.02 226.83 162.01 227.29 226.00 226.80 C 226.07 215.91 226.21 205.02 225.84 194.13 C 221.22 194.20 216.59 194.17 211.98 194.44 C 168.33 194.08 124.68 193.89 81.02 193.99 C 62.36 194.08 43.71 194.94 25.04 195.28 M 137.85 261.99 C 136.50 280.17 136.96 298.41 138.17 316.58 C 144.46 316.45 150.75 316.47 157.03 316.79 C 177.05 316.82 197.08 316.79 217.10 316.80 C 220.32 316.82 223.66 316.15 226.07 313.87 C 226.90 296.52 226.31 279.17 225.76 261.83 C 214.17 261.74 202.58 261.44 190.99 261.48 C 173.27 260.77 155.56 261.85 137.85 261.99 Z" />
</g>
<g id="#286664ff">
<path fill="#286664" opacity="1.00" d=" M 44.01 204.76 C 56.37 205.14 68.70 204.15 81.06 204.41 C 115.05 204.58 149.07 204.01 183.05 204.82 C 194.04 204.84 205.02 204.68 216.00 204.91 C 216.00 208.71 216.00 212.50 216.06 216.30 C 214.07 216.62 212.06 216.81 210.04 216.86 C 152.07 216.82 94.08 216.81 36.11 216.87 C 34.81 213.32 36.06 209.21 36.55 205.55 C 38.77 204.30 41.55 204.94 44.01 204.76 Z" />
<path fill="#286664" opacity="1.00" d=" M 287.96 210.15 C 291.96 210.00 295.97 209.93 299.98 209.90 C 300.04 229.94 299.95 249.98 300.01 270.03 C 300.02 274.37 300.49 278.70 301.07 283.00 C 309.92 283.28 318.85 282.42 327.65 283.40 C 328.52 289.55 327.77 295.79 328.00 301.98 C 327.73 310.87 328.55 319.83 327.63 328.67 C 325.11 329.13 322.54 329.02 319.99 329.04 C 303.69 328.86 287.39 329.19 271.09 328.89 C 270.85 313.82 271.12 298.76 270.95 283.70 C 276.11 282.59 281.44 283.35 286.60 282.41 C 287.37 281.08 287.43 279.50 287.59 278.01 C 288.47 255.40 287.66 232.76 287.96 210.15 Z" />
</g>
</svg>
