<?xml version="1.0" encoding="UTF-8" ?>
<!DOCTYPE svg PUBLIC "-//W3C//DTD SVG 1.1//EN" "http://www.w3.org/Graphics/SVG/1.1/DTD/svg11.dtd">
<svg width="351pt" height="343pt" viewBox="0 0 351 343" version="1.1" xmlns="http://www.w3.org/2000/svg">
<g id="#ffffffff">
<path fill="#ffffff" opacity="1.00" d=" M 0.00 0.00 L 0.06 0.00 C 0.05 0.02 0.02 0.05 0.00 0.06 L 0.00 0.00 Z" />
<path fill="#ffffff" opacity="1.00" d=" M 152.12 15.63 C 167.13 12.30 183.18 12.22 197.78 17.40 C 225.75 26.91 248.55 52.37 252.17 82.07 C 253.01 93.15 252.52 104.53 248.81 115.10 C 239.36 142.24 214.44 162.45 186.80 168.94 C 185.22 169.77 183.66 169.08 182.25 168.28 C 193.08 147.22 205.88 127.24 217.60 106.67 C 218.46 105.27 219.26 103.81 220.43 102.64 C 224.92 101.75 229.58 102.01 234.14 101.59 C 234.01 98.39 234.01 95.20 234.03 92.00 C 216.38 91.95 198.74 92.11 181.13 93.30 C 179.69 91.91 179.86 89.79 179.63 87.97 C 178.73 77.62 177.08 67.36 175.88 57.04 C 168.07 61.07 163.06 68.63 159.43 76.38 C 156.56 81.72 154.42 87.49 150.77 92.38 C 137.17 92.41 123.58 92.32 109.99 92.01 C 109.97 95.20 109.97 98.39 109.97 101.58 C 114.62 101.73 119.22 102.42 123.87 102.66 C 126.50 106.00 128.42 109.81 130.49 113.51 C 141.14 131.72 152.01 149.82 162.14 168.32 C 161.64 168.62 160.64 169.23 160.14 169.54 C 139.52 164.96 120.02 153.83 107.07 136.95 C 95.15 122.19 90.20 102.51 91.76 83.79 C 95.22 51.53 120.85 23.43 152.12 15.63 Z" />
<path fill="#ffffff" opacity="1.00" d=" M 156.70 101.00 C 162.03 96.19 163.92 88.87 168.81 83.76 C 169.35 85.45 169.72 87.18 169.81 88.95 C 170.79 101.02 172.13 113.05 173.87 125.03 C 182.94 121.31 185.94 111.10 193.00 105.07 C 196.73 100.98 203.07 98.98 208.26 101.29 C 197.49 122.58 184.43 142.66 172.54 163.34 C 170.24 161.59 168.95 158.94 167.53 156.50 C 157.17 139.22 147.27 121.67 136.64 104.55 C 136.76 102.82 138.66 102.49 140.06 102.36 C 145.61 101.98 151.15 101.45 156.70 101.00 Z" />
<path fill="#ffffff" opacity="1.00" d=" M 52.03 115.03 C 58.36 104.94 69.79 100.32 79.79 94.82 C 80.64 96.54 81.12 98.41 81.41 100.30 C 85.86 126.39 100.70 150.63 122.67 165.58 C 121.31 170.76 120.80 176.12 119.47 181.31 C 116.31 194.57 113.14 209.74 120.76 222.12 C 119.26 224.16 117.68 226.15 115.99 228.04 C 115.95 236.29 115.84 244.53 115.71 252.78 C 122.59 258.98 127.18 268.25 136.44 271.40 C 144.10 273.43 152.13 271.90 159.92 272.95 C 168.24 273.09 176.58 273.22 184.90 272.89 C 194.12 271.58 204.59 274.59 212.73 268.79 C 218.81 264.25 223.27 257.98 228.53 252.58 C 228.60 241.74 228.33 230.28 223.45 220.36 C 225.08 217.18 229.25 215.05 228.59 211.02 C 228.22 195.58 223.93 180.59 221.93 165.36 C 226.65 161.62 231.37 157.90 235.66 153.67 C 246.66 142.52 254.86 128.70 259.38 113.70 C 260.66 108.26 262.62 102.88 262.59 97.22 C 262.97 96.90 263.74 96.26 264.13 95.94 C 270.55 98.66 277.10 101.30 282.92 105.19 C 287.42 109.00 291.87 113.29 294.10 118.88 C 298.34 128.63 298.07 139.44 299.48 149.78 C 310.62 151.91 322.51 156.13 328.80 166.24 C 333.04 174.00 334.04 184.22 329.16 191.94 C 324.02 200.38 315.38 205.65 306.93 210.28 C 311.37 215.83 316.27 221.16 319.49 227.58 C 321.90 232.53 322.19 238.48 319.86 243.51 C 317.15 249.94 311.20 254.57 304.53 256.33 C 300.10 257.32 295.53 257.61 291.17 258.89 C 289.75 259.99 289.23 261.85 288.22 263.29 C 276.80 283.15 255.07 296.59 232.16 297.74 C 229.51 306.68 225.39 316.03 217.24 321.26 C 212.33 324.64 206.08 324.84 200.46 323.39 C 192.58 320.61 188.68 311.98 188.38 304.11 C 188.26 299.85 187.43 295.61 187.60 291.35 C 187.92 289.16 190.47 289.59 192.03 289.53 C 196.21 289.58 200.40 289.45 204.58 289.68 C 204.99 286.50 205.95 283.42 206.93 280.37 C 190.09 281.00 173.21 277.96 156.41 280.26 C 150.71 280.74 145.15 282.13 139.58 283.38 C 145.42 285.84 150.66 289.50 156.46 292.07 C 156.56 299.67 155.90 307.44 153.26 314.63 C 150.69 318.78 147.08 322.86 142.00 323.66 C 137.48 325.12 132.71 323.92 128.41 322.31 C 119.38 317.03 114.51 307.18 111.79 297.44 C 87.28 296.85 64.17 280.94 53.75 258.92 C 48.66 257.90 43.51 257.13 38.52 255.69 C 33.27 253.95 28.41 250.61 25.79 245.62 C 23.19 240.69 22.40 234.84 24.30 229.52 C 26.91 222.09 32.68 216.47 37.14 210.17 C 30.08 206.03 22.60 202.05 17.35 195.55 C 12.58 190.27 10.76 182.82 12.11 175.89 C 12.61 166.20 20.46 159.18 28.41 154.82 C 33.67 152.36 39.19 150.45 44.93 149.42 C 46.31 137.86 45.54 125.23 52.03 115.03 M 67.86 150.86 C 59.11 155.84 53.60 165.21 51.72 174.92 C 57.03 172.38 62.46 169.95 67.08 166.22 C 73.12 161.79 77.71 155.53 80.41 148.56 C 80.71 147.77 81.32 146.20 81.62 145.41 C 77.01 147.14 72.02 148.04 67.86 150.86 M 263.15 145.54 C 264.42 151.54 267.32 157.08 271.54 161.53 C 277.52 167.37 284.86 171.56 292.43 175.02 C 291.11 170.16 290.05 165.06 286.91 160.98 C 281.64 152.69 272.38 148.01 263.15 145.54 M 74.38 190.40 C 76.28 199.64 81.36 208.65 89.80 213.34 C 94.17 216.62 99.62 217.68 104.60 219.64 C 102.53 214.07 100.05 208.53 95.79 204.25 C 90.12 197.66 82.08 194.03 74.38 190.40 M 251.91 200.75 C 246.22 205.51 242.24 211.97 239.44 218.78 C 244.95 217.92 250.45 216.18 255.02 212.91 C 262.99 208.09 267.76 199.31 269.85 190.46 C 263.40 192.95 257.16 196.18 251.91 200.75 M 83.97 249.94 C 79.49 254.80 76.29 260.75 74.52 267.11 C 77.64 267.04 80.76 266.99 83.88 267.02 C 88.49 259.57 95.04 253.48 102.52 248.98 C 102.56 245.82 102.53 242.66 102.61 239.51 C 95.90 241.95 89.16 244.91 83.97 249.94 M 241.71 239.10 C 241.83 242.66 241.58 246.23 241.41 249.79 C 249.18 252.91 255.28 259.42 259.39 266.59 C 262.86 266.40 266.33 266.76 269.78 267.11 C 267.88 261.00 264.78 255.23 260.50 250.46 C 255.24 245.21 248.54 241.81 241.71 239.10 Z" />
<path fill="#ffffff" opacity="1.00" d=" M 131.31 170.96 C 137.03 172.31 142.51 174.81 148.38 175.54 C 162.17 178.69 176.72 179.40 190.61 176.53 C 192.30 176.34 194.00 176.12 195.61 175.54 C 201.25 174.91 206.41 172.36 211.83 170.84 C 213.85 173.44 212.65 176.91 212.97 179.93 C 212.75 181.93 213.96 185.76 210.80 185.81 C 185.26 185.74 159.71 186.38 134.17 185.67 C 133.58 184.64 133.01 183.60 132.45 182.57 C 132.22 179.04 130.18 175.93 130.04 172.41 C 130.36 172.05 130.99 171.32 131.31 170.96 Z" />
<path fill="#ffffff" opacity="1.00" d=" M 125.50 198.19 C 125.36 196.72 126.71 195.37 128.18 195.50 C 157.14 195.48 186.09 195.52 215.05 195.47 C 216.47 195.34 218.24 195.84 218.45 197.50 C 218.63 200.62 218.42 203.77 218.59 206.90 C 217.56 207.69 216.36 208.10 215.05 207.95 C 187.37 207.93 159.68 207.92 131.99 207.95 C 129.78 207.88 127.35 208.34 125.43 206.97 C 125.54 204.04 125.43 201.11 125.50 198.19 Z" />
<path fill="#ffffff" opacity="1.00" d=" M 133.84 218.36 C 139.84 218.30 145.89 218.48 151.83 217.43 C 159.88 217.08 167.99 217.46 175.98 216.33 C 179.68 216.16 183.30 217.25 187.01 217.09 C 195.66 217.05 204.20 218.59 212.60 220.48 C 213.56 221.16 214.52 221.85 215.52 222.48 C 213.82 222.32 212.35 223.22 210.75 223.58 C 206.11 223.87 201.41 223.55 196.83 224.52 C 190.21 224.91 183.52 224.46 176.96 225.60 C 169.67 225.45 162.29 226.22 155.06 225.05 C 146.13 224.60 136.95 223.73 128.55 220.53 C 130.06 219.33 131.85 218.32 133.84 218.36 Z" />
<path fill="#ffffff" opacity="1.00" d=" M 125.44 234.96 C 126.58 234.52 127.76 234.15 129.01 234.23 C 157.70 234.25 186.38 234.24 215.07 234.23 C 216.29 234.15 217.45 234.53 218.56 234.98 C 218.39 238.26 218.62 241.55 218.68 244.84 C 218.73 246.20 217.18 246.89 216.01 246.74 C 188.35 246.79 160.68 246.73 133.02 246.77 C 130.48 246.70 127.81 247.13 125.44 246.04 C 125.53 242.35 125.53 238.65 125.44 234.96 Z" />
<path fill="#ffffff" opacity="1.00" d=" M 132.77 258.51 C 135.43 256.35 139.08 257.39 142.18 256.48 C 161.37 255.99 180.61 255.92 199.80 256.48 C 203.59 257.67 208.01 256.09 211.39 258.49 C 205.63 262.23 198.59 262.60 192.00 263.61 C 179.68 263.71 167.36 263.58 155.04 263.66 C 151.17 263.92 147.46 262.58 143.61 262.53 C 139.93 261.40 135.97 260.81 132.77 258.51 Z" />
</g>
<g id="#e5e5e5ff">
</g>
<g id="#a4a4a0ff">
<path fill="#a4a4a0" opacity="1.00" d=" M 40.19 0.00 L 41.86 0.00 C 41.32 1.63 40.76 1.63 40.19 0.00 Z" />
</g>
<g id="#040404ff">
<path fill="#040404" opacity="1.00" d=" M 146.93 6.61 C 153.14 4.80 159.45 2.62 166.02 3.11 C 173.68 3.40 181.47 2.38 189.01 4.13 C 210.14 8.28 229.57 20.18 243.13 36.87 C 254.31 50.44 261.67 67.10 264.11 84.52 C 275.68 89.82 288.63 93.91 297.17 103.87 C 305.77 113.74 307.23 127.23 310.35 139.44 C 319.36 145.05 328.42 150.68 336.48 157.62 C 340.19 161.66 342.07 166.92 343.97 171.97 C 345.30 175.12 344.90 178.63 344.90 181.96 C 343.61 186.32 341.64 190.45 339.86 194.63 C 337.93 196.04 337.93 198.63 336.53 200.39 C 333.02 204.66 329.32 208.76 325.93 213.13 C 328.62 223.28 332.98 233.82 330.26 244.43 C 328.44 249.93 325.45 255.28 320.74 258.81 C 314.21 263.98 306.15 266.50 298.67 269.91 C 297.36 270.42 296.68 271.72 295.82 272.74 C 282.71 290.23 263.39 303.15 241.92 307.65 C 236.29 315.33 231.44 323.71 224.61 330.40 C 223.13 330.49 222.18 331.49 221.42 332.67 C 215.57 335.10 209.25 336.55 202.89 335.98 C 196.78 334.70 189.80 333.41 185.86 328.04 C 179.65 316.30 177.22 303.00 175.98 289.89 C 173.30 290.00 170.62 290.08 167.94 290.13 C 166.92 301.97 164.81 313.86 159.95 324.78 C 157.81 331.22 150.75 333.61 145.17 336.26 C 135.11 339.31 124.69 334.42 117.18 327.88 C 111.97 321.33 107.12 314.49 102.02 307.86 C 79.71 302.70 59.65 289.05 46.43 270.37 C 38.99 267.02 31.08 264.46 24.44 259.58 C 17.14 254.19 12.41 245.12 13.01 235.97 C 13.43 228.24 16.07 220.91 17.76 213.43 C 11.90 205.12 5.88 196.80 1.42 187.65 C 1.16 182.30 1.06 176.87 1.47 171.54 C 6.01 156.17 19.95 146.15 33.82 139.67 C 36.70 128.02 38.10 115.33 45.61 105.52 C 53.11 95.53 65.18 90.89 76.33 86.26 C 77.93 85.43 80.34 85.10 80.49 82.89 C 84.64 67.07 89.15 50.63 99.70 37.72 C 111.43 22.42 128.69 12.22 146.93 6.61 M 152.12 15.63 C 120.85 23.43 95.22 51.53 91.76 83.79 C 90.20 102.51 95.15 122.19 107.07 136.95 C 120.02 153.83 139.52 164.96 160.14 169.54 C 160.64 169.23 161.64 168.62 162.14 168.32 C 152.01 149.82 141.14 131.72 130.49 113.51 C 128.42 109.81 126.50 106.00 123.87 102.66 C 119.22 102.42 114.62 101.73 109.97 101.58 C 109.97 98.39 109.97 95.20 109.99 92.01 C 123.58 92.32 137.17 92.41 150.77 92.38 C 154.42 87.49 156.56 81.72 159.43 76.38 C 163.06 68.63 168.07 61.07 175.88 57.04 C 177.08 67.36 178.73 77.62 179.63 87.97 C 179.86 89.79 179.69 91.91 181.13 93.30 C 198.74 92.11 216.38 91.95 234.03 92.00 C 234.01 95.20 234.01 98.39 234.14 101.59 C 229.58 102.01 224.92 101.75 220.43 102.64 C 219.26 103.81 218.46 105.27 217.60 106.67 C 205.88 127.24 193.08 147.22 182.25 168.28 C 183.66 169.08 185.22 169.77 186.80 168.94 C 214.44 162.45 239.36 142.24 248.81 115.10 C 252.52 104.53 253.01 93.15 252.17 82.07 C 248.55 52.37 225.75 26.91 197.78 17.40 C 183.18 12.22 167.13 12.30 152.12 15.63 M 156.70 101.00 C 151.15 101.45 145.61 101.98 140.06 102.36 C 138.66 102.49 136.76 102.82 136.64 104.55 C 147.27 121.67 157.17 139.22 167.53 156.50 C 168.95 158.94 170.24 161.59 172.54 163.34 C 184.43 142.66 197.49 122.58 208.26 101.29 C 203.07 98.98 196.73 100.98 193.00 105.07 C 185.94 111.10 182.94 121.31 173.87 125.03 C 172.13 113.05 170.79 101.02 169.81 88.95 C 169.72 87.18 169.35 85.45 168.81 83.76 C 163.92 88.87 162.03 96.19 156.70 101.00 M 52.03 115.03 C 45.54 125.23 46.31 137.86 44.93 149.42 C 39.19 150.45 33.67 152.36 28.41 154.82 C 20.46 159.18 12.61 166.20 12.11 175.89 C 10.76 182.82 12.58 190.27 17.35 195.55 C 22.60 202.05 30.08 206.03 37.14 210.17 C 32.68 216.47 26.91 222.09 24.30 229.52 C 22.40 234.84 23.19 240.69 25.79 245.62 C 28.41 250.61 33.27 253.95 38.52 255.69 C 43.51 257.13 48.66 257.90 53.75 258.92 C 64.17 280.94 87.28 296.85 111.79 297.44 C 114.51 307.18 119.38 317.03 128.41 322.31 C 132.71 323.92 137.48 325.12 142.00 323.66 C 147.08 322.86 150.69 318.78 153.26 314.63 C 155.90 307.44 156.56 299.67 156.46 292.07 C 150.66 289.50 145.42 285.84 139.58 283.38 C 145.15 282.13 150.71 280.74 156.41 280.26 C 173.21 277.96 190.09 281.00 206.93 280.37 C 205.95 283.42 204.99 286.50 204.58 289.68 C 200.40 289.45 196.21 289.58 192.03 289.53 C 190.47 289.59 187.92 289.16 187.60 291.35 C 187.43 295.61 188.26 299.85 188.38 304.11 C 188.68 311.98 192.58 320.61 200.46 323.39 C 206.08 324.84 212.33 324.64 217.24 321.26 C 225.39 316.03 229.51 306.68 232.16 297.74 C 255.07 296.59 276.80 283.15 288.22 263.29 C 289.23 261.85 289.75 259.99 291.17 258.89 C 295.53 257.61 300.10 257.32 304.53 256.33 C 311.20 254.57 317.15 249.94 319.86 243.51 C 322.19 238.48 321.90 232.53 319.49 227.58 C 316.27 221.16 311.37 215.83 306.93 210.28 C 315.38 205.65 324.02 200.38 329.16 191.94 C 334.04 184.22 333.04 174.00 328.80 166.24 C 322.51 156.13 310.62 151.91 299.48 149.78 C 298.07 139.44 298.34 128.63 294.10 118.88 C 291.87 113.29 287.42 109.00 282.92 105.19 C 277.10 101.30 270.55 98.66 264.13 95.94 C 263.74 96.26 262.97 96.90 262.59 97.22 C 262.62 102.88 260.66 108.26 259.38 113.70 C 254.86 128.70 246.66 142.52 235.66 153.67 C 231.37 157.90 226.65 161.62 221.93 165.36 C 223.93 180.59 228.22 195.58 228.59 211.02 C 229.25 215.05 225.08 217.18 223.45 220.36 C 228.33 230.28 228.60 241.74 228.53 252.58 C 223.27 257.98 218.81 264.25 212.73 268.79 C 204.59 274.59 194.12 271.58 184.90 272.89 C 176.58 273.22 168.24 273.09 159.92 272.95 C 152.13 271.90 144.10 273.43 136.44 271.40 C 127.18 268.25 122.59 258.98 115.71 252.78 C 115.84 244.53 115.95 236.29 115.99 228.04 C 117.68 226.15 119.26 224.16 120.76 222.12 C 113.14 209.74 116.31 194.57 119.47 181.31 C 120.80 176.12 121.31 170.76 122.67 165.58 C 100.70 150.63 85.86 126.39 81.41 100.30 C 81.12 98.41 80.64 96.54 79.79 94.82 C 69.79 100.32 58.36 104.94 52.03 115.03 M 131.31 170.96 C 130.99 171.32 130.36 172.05 130.04 172.41 C 130.18 175.93 132.22 179.04 132.45 182.57 C 133.01 183.60 133.58 184.64 134.17 185.67 C 159.71 186.38 185.26 185.74 210.80 185.81 C 213.96 185.76 212.75 181.93 212.97 179.93 C 212.65 176.91 213.85 173.44 211.83 170.84 C 206.41 172.36 201.25 174.91 195.61 175.54 C 194.00 176.12 192.30 176.34 190.61 176.53 C 176.72 179.40 162.17 178.69 148.38 175.54 C 142.51 174.81 137.03 172.31 131.31 170.96 M 125.50 198.19 C 125.43 201.11 125.54 204.04 125.43 206.97 C 127.35 208.34 129.78 207.88 131.99 207.95 C 159.68 207.92 187.37 207.93 215.05 207.95 C 216.36 208.10 217.56 207.69 218.59 206.90 C 218.42 203.77 218.63 200.62 218.45 197.50 C 218.24 195.84 216.47 195.34 215.05 195.47 C 186.09 195.52 157.14 195.48 128.18 195.50 C 126.71 195.37 125.36 196.72 125.50 198.19 M 133.84 218.36 C 131.85 218.32 130.06 219.33 128.55 220.53 C 136.95 223.73 146.13 224.60 155.06 225.05 C 162.29 226.22 169.67 225.45 176.96 225.60 C 183.52 224.46 190.21 224.91 196.83 224.52 C 201.41 223.55 206.11 223.87 210.75 223.58 C 212.35 223.22 213.82 222.32 215.52 222.48 C 214.52 221.85 213.56 221.16 212.60 220.48 C 204.20 218.59 195.66 217.05 187.01 217.09 C 183.30 217.25 179.68 216.16 175.98 216.33 C 167.99 217.46 159.88 217.08 151.83 217.43 C 145.89 218.48 139.84 218.30 133.84 218.36 M 125.44 234.96 C 125.53 238.65 125.53 242.35 125.44 246.04 C 127.81 247.13 130.48 246.70 133.02 246.77 C 160.68 246.73 188.35 246.79 216.01 246.74 C 217.18 246.89 218.73 246.20 218.68 244.84 C 218.62 241.55 218.39 238.26 218.56 234.98 C 217.45 234.53 216.29 234.15 215.07 234.23 C 186.38 234.24 157.70 234.25 129.01 234.23 C 127.76 234.15 126.58 234.52 125.44 234.96 M 132.77 258.51 C 135.97 260.81 139.93 261.40 143.61 262.53 C 147.46 262.58 151.17 263.92 155.04 263.66 C 167.36 263.58 179.68 263.71 192.00 263.61 C 198.59 262.60 205.63 262.23 211.39 258.49 C 208.01 256.09 203.59 257.67 199.80 256.48 C 180.61 255.92 161.37 255.99 142.18 256.48 C 139.08 257.39 135.43 256.35 132.77 258.51 Z" />
<path fill="#040404" opacity="1.00" d=" M 68.65 19.35 C 66.92 15.42 69.59 11.55 72.42 9.02 C 78.48 14.87 84.60 20.65 90.78 26.36 C 87.83 29.22 84.81 32.02 81.71 34.72 C 77.39 29.59 71.31 25.68 68.65 19.35 Z" />
<path fill="#040404" opacity="1.00" d=" M 263.99 16.02 C 266.14 14.02 268.75 11.93 271.86 12.04 C 274.99 12.39 276.69 15.30 278.26 17.66 C 272.93 23.88 266.93 29.48 260.96 35.07 C 258.51 31.91 256.05 28.77 253.53 25.66 C 257.44 22.92 260.58 19.32 263.99 16.02 Z" />
<path fill="#040404" opacity="1.00" d=" M 55.87 47.81 C 62.18 45.73 68.95 47.04 75.46 46.54 C 75.26 50.68 75.00 54.81 74.83 58.94 C 66.79 58.68 58.75 58.33 50.72 57.95 C 50.35 53.97 51.70 49.21 55.87 47.81 Z" />
<path fill="#040404" opacity="1.00" d=" M 268.68 46.49 C 275.32 47.10 282.32 45.61 288.70 48.04 C 292.69 49.53 293.58 54.19 293.47 57.96 C 285.36 58.30 277.26 58.69 269.15 58.93 C 269.10 54.78 268.87 50.64 268.68 46.49 Z" />
<path fill="#040404" opacity="1.00" d=" M 67.86 150.86 C 72.02 148.04 77.01 147.14 81.62 145.41 C 81.32 146.20 80.71 147.77 80.41 148.56 C 77.71 155.53 73.12 161.79 67.08 166.22 C 62.46 169.95 57.03 172.38 51.72 174.92 C 53.60 165.21 59.11 155.84 67.86 150.86 Z" />
<path fill="#040404" opacity="1.00" d=" M 263.15 145.54 C 272.38 148.01 281.64 152.69 286.91 160.98 C 290.05 165.06 291.11 170.16 292.43 175.02 C 284.86 171.56 277.52 167.37 271.54 161.53 C 267.32 157.08 264.42 151.54 263.15 145.54 Z" />
<path fill="#040404" opacity="1.00" d=" M 74.38 190.40 C 82.08 194.03 90.12 197.66 95.79 204.25 C 100.05 208.53 102.53 214.07 104.60 219.64 C 99.62 217.68 94.17 216.62 89.80 213.34 C 81.36 208.65 76.28 199.64 74.38 190.40 Z" />
<path fill="#040404" opacity="1.00" d=" M 251.91 200.75 C 257.16 196.18 263.40 192.95 269.85 190.46 C 267.76 199.31 262.99 208.09 255.02 212.91 C 250.45 216.18 244.95 217.92 239.44 218.78 C 242.24 211.97 246.22 205.51 251.91 200.75 Z" />
<path fill="#040404" opacity="1.00" d=" M 83.97 249.94 C 89.16 244.91 95.90 241.95 102.61 239.51 C 102.53 242.66 102.56 245.82 102.52 248.98 C 95.04 253.48 88.49 259.57 83.88 267.02 C 80.76 266.99 77.64 267.04 74.52 267.11 C 76.29 260.75 79.49 254.80 83.97 249.94 Z" />
<path fill="#040404" opacity="1.00" d=" M 241.71 239.10 C 248.54 241.81 255.24 245.21 260.50 250.46 C 264.78 255.23 267.88 261.00 269.78 267.11 C 266.33 266.76 262.86 266.40 259.39 266.59 C 255.28 259.42 249.18 252.91 241.41 249.79 C 241.58 246.23 241.83 242.66 241.71 239.10 Z" />
</g>
</svg>
