<?xml version="1.0" encoding="UTF-8" ?>
<!DOCTYPE svg PUBLIC "-//W3C//DTD SVG 1.1//EN" "http://www.w3.org/Graphics/SVG/1.1/DTD/svg11.dtd">
<svg width="346pt" height="344pt" viewBox="0 0 346 344" version="1.1" xmlns="http://www.w3.org/2000/svg">
<g id="#e5e5e5ff">
</g>
<g id="#000000ff">
<path fill="#000000" opacity="1.00" d=" M 8.57 2.37 C 58.76 2.37 108.94 2.39 159.13 2.36 C 162.05 1.84 163.87 4.53 165.57 6.43 C 170.76 12.91 172.52 21.26 174.02 29.22 C 198.67 32.02 222.06 44.62 237.61 63.99 C 268.62 64.23 299.63 64.09 330.64 64.12 C 333.85 67.97 337.12 71.77 340.27 75.67 C 340.24 94.58 340.21 113.49 340.28 132.40 C 336.26 137.38 330.39 140.67 324.12 141.84 C 312.89 144.18 301.41 141.81 290.09 142.52 C 288.82 142.43 288.17 143.69 287.39 144.43 C 280.86 151.91 274.21 159.29 267.74 166.82 C 259.18 158.18 251.08 149.12 242.65 140.36 C 235.15 157.27 224.84 173.05 211.36 185.81 C 211.40 192.69 211.56 199.58 211.76 206.46 C 228.19 211.47 244.51 216.86 260.83 222.22 C 265.51 261.03 270.06 299.87 272.83 338.87 C 205.70 338.88 138.58 338.88 71.45 338.86 C 73.52 299.80 78.65 261.01 83.19 222.18 C 99.46 216.81 115.75 211.52 132.11 206.43 C 132.42 199.20 132.89 191.98 133.07 184.76 C 129.93 182.28 126.56 180.05 123.18 177.92 C 116.83 175.98 110.09 175.60 103.81 173.39 C 97.94 171.58 92.77 167.76 89.13 162.84 C 84.27 155.64 83.12 146.84 80.78 138.66 C 87.02 137.87 93.27 137.09 99.52 136.31 C 98.75 143.13 97.87 149.93 97.16 156.75 C 102.56 159.89 107.89 163.14 113.34 166.19 C 107.90 152.23 102.71 138.15 96.32 124.59 C 92.67 118.19 94.19 110.53 93.29 103.51 C 87.36 103.48 81.44 103.53 75.52 103.48 C 68.69 111.59 61.89 119.72 54.91 127.70 C 47.88 120.12 40.65 112.72 33.65 105.11 C 23.12 103.68 11.79 101.79 3.73 94.23 C 3.77 67.13 3.76 40.03 3.74 12.93 C 3.77 10.79 3.97 8.66 4.08 6.52 C 4.83 5.48 5.56 4.43 6.29 3.38 C 6.86 3.13 8.00 2.62 8.57 2.37 M 24.97 13.40 C 21.71 13.66 18.40 13.52 15.18 14.16 C 14.82 15.40 14.68 16.68 14.77 17.98 C 13.96 41.61 14.53 65.29 14.40 88.94 C 14.11 91.48 17.02 91.81 18.86 91.90 C 25.39 92.19 31.87 93.06 38.40 93.29 C 43.62 99.42 48.59 105.82 54.21 111.59 C 59.34 106.32 63.64 100.27 68.92 95.16 C 76.41 90.75 85.59 93.59 93.81 93.02 C 96.71 86.28 98.90 79.16 102.91 72.94 C 108.52 63.06 116.07 54.33 124.89 47.18 C 135.55 39.01 148.10 33.60 161.27 31.07 C 161.25 25.30 160.89 19.54 160.20 13.81 C 158.55 13.17 156.81 12.98 155.06 13.06 C 111.70 13.24 68.32 12.55 24.97 13.40 M 160.01 42.18 C 128.75 47.76 104.27 77.57 103.57 109.10 L 104.39 109.30 C 131.63 93.77 160.66 80.04 191.96 75.43 C 194.08 81.61 194.99 88.19 197.79 94.14 C 201.01 101.43 208.15 106.61 215.89 108.15 C 222.48 109.73 229.31 108.82 236.00 109.48 C 237.59 109.63 239.20 109.61 240.77 109.28 C 239.48 86.95 227.79 65.33 209.27 52.65 C 195.18 42.60 176.93 39.30 160.01 42.18 M 242.80 75.03 C 246.27 85.05 249.27 95.36 249.79 106.00 C 249.55 113.98 247.07 122.00 241.72 128.05 C 246.86 131.19 252.01 134.44 256.30 138.73 C 260.18 142.39 263.57 146.52 267.50 150.13 C 273.02 144.36 278.34 138.40 283.35 132.16 C 290.88 132.24 298.41 132.35 305.94 132.04 C 313.64 131.87 321.42 132.14 329.05 130.94 C 329.81 116.96 329.64 102.97 329.61 88.97 C 329.32 84.63 329.04 80.28 329.30 75.93 C 321.10 73.56 312.25 75.57 303.81 74.48 C 285.18 74.21 266.55 74.49 247.92 74.34 C 246.18 74.26 244.46 74.51 242.80 75.03 M 109.34 120.01 C 112.65 135.53 116.59 151.79 127.38 164.00 C 140.12 166.49 153.17 164.99 166.04 165.20 C 166.02 168.73 166.05 172.26 166.13 175.78 C 157.97 176.25 149.64 175.38 141.61 177.08 C 156.76 189.69 179.34 190.64 196.48 181.62 C 204.16 178.02 210.00 171.71 215.72 165.63 C 226.31 153.00 231.70 136.85 234.31 120.78 C 222.84 121.79 210.93 119.23 201.30 112.78 C 191.98 106.74 185.43 97.28 181.50 87.02 C 156.44 95.46 131.09 104.65 109.34 120.01 M 143.99 193.02 L 143.28 194.02 C 143.10 202.04 144.11 210.05 143.79 218.08 C 153.44 222.54 162.48 228.95 173.21 230.51 C 181.65 227.72 189.53 223.55 197.46 219.60 C 198.45 218.87 200.23 218.36 200.11 216.83 C 200.27 212.17 200.16 207.51 200.55 202.86 C 200.52 199.51 201.28 196.05 200.18 192.80 C 182.20 199.58 162.05 199.25 143.99 193.02 M 210.92 217.15 C 210.73 254.10 210.70 291.05 210.93 328.00 C 227.60 328.07 244.28 327.80 260.92 328.57 C 261.32 323.70 260.12 318.92 259.99 314.07 C 257.70 289.03 254.76 264.05 252.17 239.03 C 252.00 236.10 251.84 233.15 250.99 230.33 C 237.56 226.16 224.32 221.40 210.92 217.15 M 93.01 230.32 C 92.75 231.26 92.52 232.21 92.32 233.17 C 89.63 261.07 86.34 288.93 83.64 316.83 C 83.08 320.58 82.80 324.36 82.84 328.15 C 99.58 328.12 116.32 327.90 133.07 328.00 C 133.36 320.01 133.13 312.02 133.20 304.03 C 133.08 275.16 133.44 246.28 133.02 217.41 C 119.51 221.14 106.44 226.31 93.01 230.32 M 144.24 232.18 C 142.42 233.76 143.22 236.39 142.96 238.50 C 143.84 239.34 144.73 240.19 145.61 241.04 C 147.77 241.05 149.97 240.95 151.97 240.04 C 152.80 237.53 153.02 234.88 151.92 232.41 C 149.59 230.99 146.61 230.63 144.24 232.18 M 190.77 236.75 C 191.34 239.47 194.14 240.64 196.26 241.96 C 198.31 240.29 201.20 238.87 201.70 236.00 C 201.35 233.23 198.57 231.96 196.64 230.39 C 194.05 231.69 190.87 233.45 190.77 236.75 M 159.83 247.59 C 154.55 249.23 149.22 250.72 143.93 252.35 C 143.36 276.58 143.27 300.83 143.35 325.07 C 143.41 326.08 143.62 327.07 143.97 328.04 C 150.36 327.76 156.74 328.53 163.13 328.04 C 158.96 318.81 154.05 309.92 149.85 300.71 C 153.60 284.04 158.39 267.58 162.97 251.11 C 163.17 249.88 163.89 248.65 163.64 247.39 C 162.56 246.39 161.04 247.42 159.83 247.59 M 179.87 246.65 C 184.68 264.41 189.80 282.09 194.03 300.00 L 193.94 300.90 C 189.88 310.08 185.17 318.96 180.86 328.02 C 187.27 328.54 193.68 327.84 200.09 327.99 C 200.81 323.71 200.34 319.35 200.46 315.04 C 200.35 294.17 200.77 273.29 200.08 252.44 C 193.27 250.75 186.79 247.83 179.87 246.65 M 171.22 261.30 C 167.39 273.73 164.21 286.34 160.55 298.82 C 164.49 306.07 168.33 313.38 172.58 320.45 C 176.08 313.85 179.22 307.06 182.42 300.31 C 183.32 298.84 182.99 297.10 182.54 295.55 C 179.67 285.53 176.80 275.51 173.56 265.61 C 173.10 264.19 172.50 262.79 171.50 261.66 C 171.43 261.57 171.29 261.39 171.22 261.30 Z" />
</g>
<g id="#c3c3c3ff">
<path fill="#c3c3c3" opacity="1.00" d=" M 24.97 13.40 C 68.32 12.55 111.70 13.24 155.06 13.06 C 156.81 12.98 158.55 13.17 160.20 13.81 C 160.89 19.54 161.25 25.30 161.27 31.07 C 148.10 33.60 135.55 39.01 124.89 47.18 C 116.07 54.33 108.52 63.06 102.91 72.94 C 98.90 79.16 96.71 86.28 93.81 93.02 C 85.59 93.59 76.41 90.75 68.92 95.16 C 63.64 100.27 59.34 106.32 54.21 111.59 C 48.59 105.82 43.62 99.42 38.40 93.29 C 31.87 93.06 25.39 92.19 18.86 91.90 C 17.02 91.81 14.11 91.48 14.40 88.94 C 14.53 65.29 13.96 41.61 14.77 17.98 C 14.68 16.68 14.82 15.40 15.18 14.16 C 18.40 13.52 21.71 13.66 24.97 13.40 Z" />
<path fill="#c3c3c3" opacity="1.00" d=" M 242.80 75.03 C 244.46 74.51 246.18 74.26 247.92 74.34 C 266.55 74.49 285.18 74.21 303.81 74.48 C 312.25 75.57 321.10 73.56 329.30 75.93 C 329.04 80.28 329.32 84.63 329.61 88.97 C 329.64 102.97 329.81 116.96 329.05 130.94 C 321.42 132.14 313.64 131.87 305.94 132.04 C 298.41 132.35 290.88 132.24 283.35 132.16 C 278.34 138.40 273.02 144.36 267.50 150.13 C 263.57 146.52 260.18 142.39 256.30 138.73 C 252.01 134.44 246.86 131.19 241.72 128.05 C 247.07 122.00 249.55 113.98 249.79 106.00 C 249.27 95.36 246.27 85.05 242.80 75.03 Z" />
</g>
<g id="#ffca18ff">
<path fill="#ffca18" opacity="1.00" d=" M 160.01 42.18 C 176.93 39.30 195.18 42.60 209.27 52.65 C 227.79 65.33 239.48 86.95 240.77 109.28 C 239.20 109.61 237.59 109.63 236.00 109.48 C 229.31 108.82 222.48 109.73 215.89 108.15 C 208.15 106.61 201.01 101.43 197.79 94.14 C 194.99 88.19 194.08 81.61 191.96 75.43 C 160.66 80.04 131.63 93.77 104.39 109.30 L 103.57 109.10 C 104.27 77.57 128.75 47.76 160.01 42.18 Z" />
<path fill="#ffca18" opacity="1.00" d=" M 144.24 232.18 C 146.61 230.63 149.59 230.99 151.92 232.41 C 153.02 234.88 152.80 237.53 151.97 240.04 C 149.97 240.95 147.77 241.05 145.61 241.04 C 144.73 240.19 143.84 239.34 142.96 238.50 C 143.22 236.39 142.42 233.76 144.24 232.18 Z" />
<path fill="#ffca18" opacity="1.00" d=" M 190.77 236.75 C 190.87 233.45 194.05 231.69 196.64 230.39 C 198.57 231.96 201.35 233.23 201.70 236.00 C 201.20 238.87 198.31 240.29 196.26 241.96 C 194.14 240.64 191.34 239.47 190.77 236.75 Z" />
</g>
<g id="#ffffffff">
<path fill="#ffffff" opacity="1.00" d=" M 109.34 120.01 C 131.09 104.65 156.44 95.46 181.50 87.02 C 185.43 97.28 191.98 106.74 201.30 112.78 C 210.93 119.23 222.84 121.79 234.31 120.78 C 231.70 136.85 226.31 153.00 215.72 165.63 C 210.00 171.71 204.16 178.02 196.48 181.62 C 179.34 190.64 156.76 189.69 141.61 177.08 C 149.64 175.38 157.97 176.25 166.13 175.78 C 166.05 172.26 166.02 168.73 166.04 165.20 C 153.17 164.99 140.12 166.49 127.38 164.00 C 116.59 151.79 112.65 135.53 109.34 120.01 Z" />
<path fill="#ffffff" opacity="1.00" d=" M 143.99 193.02 C 162.05 199.25 182.20 199.58 200.18 192.80 C 201.28 196.05 200.52 199.51 200.55 202.86 C 200.16 207.51 200.27 212.17 200.11 216.83 C 200.23 218.36 198.45 218.87 197.46 219.60 C 189.53 223.55 181.65 227.72 173.21 230.51 C 162.48 228.95 153.44 222.54 143.79 218.08 C 144.11 210.05 143.10 202.04 143.28 194.02 L 143.99 193.02 Z" />
<path fill="#ffffff" opacity="1.00" d=" M 159.83 247.59 C 161.04 247.42 162.56 246.39 163.64 247.39 C 163.89 248.65 163.17 249.88 162.97 251.11 C 158.39 267.58 153.60 284.04 149.85 300.71 C 154.05 309.92 158.96 318.81 163.13 328.04 C 156.74 328.53 150.36 327.76 143.97 328.04 C 143.62 327.07 143.41 326.08 143.35 325.07 C 143.27 300.83 143.36 276.58 143.93 252.35 C 149.22 250.72 154.55 249.23 159.83 247.59 Z" />
<path fill="#ffffff" opacity="1.00" d=" M 179.87 246.65 C 186.79 247.83 193.27 250.75 200.08 252.44 C 200.77 273.29 200.35 294.17 200.46 315.04 C 200.34 319.35 200.81 323.71 200.09 327.99 C 193.68 327.84 187.27 328.54 180.86 328.02 C 185.17 318.96 189.88 310.08 193.94 300.90 L 194.03 300.00 C 189.80 282.09 184.68 264.41 179.87 246.65 Z" />
</g>
<g id="#00054bff">
<path fill="#00054b" opacity="1.00" d=" M 210.92 217.15 C 224.32 221.40 237.56 226.16 250.99 230.33 C 251.84 233.15 252.00 236.10 252.17 239.03 C 254.76 264.05 257.70 289.03 259.99 314.07 C 260.12 318.92 261.32 323.70 260.92 328.57 C 244.28 327.80 227.60 328.07 210.93 328.00 C 210.70 291.05 210.73 254.10 210.92 217.15 Z" />
<path fill="#00054b" opacity="1.00" d=" M 93.01 230.32 C 106.44 226.31 119.51 221.14 133.02 217.41 C 133.44 246.28 133.08 275.16 133.20 304.03 C 133.13 312.02 133.36 320.01 133.07 328.00 C 116.32 327.90 99.58 328.12 82.84 328.15 C 82.80 324.36 83.08 320.58 83.64 316.83 C 86.34 288.93 89.63 261.07 92.32 233.17 C 92.52 232.21 92.75 231.26 93.01 230.32 Z" />
</g>
<g id="#3f3d39ff">
<path fill="#3f3d39" opacity="1.00" d=" M 171.22 261.30 C 171.29 261.39 171.43 261.57 171.50 261.66 L 171.22 261.30 Z" />
</g>
<g id="#680015ff">
<path fill="#680015" opacity="1.00" d=" M 171.22 261.30 L 171.50 261.66 C 172.50 262.79 173.10 264.19 173.56 265.61 C 176.80 275.51 179.67 285.53 182.54 295.55 C 182.99 297.10 183.32 298.84 182.42 300.31 C 179.22 307.06 176.08 313.85 172.58 320.45 C 168.33 313.38 164.49 306.07 160.55 298.82 C 164.21 286.34 167.39 273.73 171.22 261.30 Z" />
</g>
</svg>
