<?xml version="1.0" encoding="UTF-8" ?>
<!DOCTYPE svg PUBLIC "-//W3C//DTD SVG 1.1//EN" "http://www.w3.org/Graphics/SVG/1.1/DTD/svg11.dtd">
<svg width="262pt" height="266pt" viewBox="0 0 262 266" version="1.1" xmlns="http://www.w3.org/2000/svg">
<g id="#e5e5e5ff">
</g>
<g id="#000000ff">
<path fill="#000000" opacity="1.00" d=" M 246.82 3.74 C 250.15 3.40 253.67 2.93 256.90 4.05 C 259.92 5.46 259.50 9.26 259.20 12.00 C 255.68 34.98 251.94 57.99 245.76 80.43 C 242.84 90.68 239.47 100.90 234.28 110.24 C 230.00 117.85 225.32 125.94 225.73 134.98 C 225.57 142.54 229.45 150.46 225.79 157.69 C 221.38 166.20 214.06 172.65 207.75 179.70 C 199.81 187.46 192.46 195.80 184.28 203.32 C 178.78 208.51 173.54 214.12 167.07 218.13 C 164.51 214.66 164.30 210.21 164.03 206.08 C 163.80 200.25 162.94 194.45 161.42 188.82 C 160.97 186.95 159.85 185.24 158.11 184.35 C 154.25 185.07 151.73 188.43 149.02 190.97 C 141.09 199.70 132.73 208.39 122.38 214.27 C 112.44 219.80 100.86 221.10 89.69 221.58 C 74.80 222.07 59.90 221.80 45.00 221.87 C 45.02 207.55 44.97 193.23 45.02 178.91 C 45.31 168.96 45.67 158.72 49.46 149.37 C 53.28 139.97 60.11 132.28 66.79 124.81 C 74.56 116.42 82.48 108.16 90.50 100.00 C 80.17 99.66 69.60 101.06 59.50 98.27 C 57.46 97.79 55.69 96.64 54.05 95.37 C 56.98 88.39 62.03 82.65 66.79 76.88 C 73.12 69.25 80.16 62.24 87.06 55.13 C 93.89 48.86 100.12 41.54 108.61 37.45 C 115.34 34.19 122.97 35.74 130.10 34.52 C 138.84 33.12 147.39 30.61 155.60 27.32 C 172.21 19.65 189.92 14.59 207.77 10.73 C 220.79 8.43 233.71 5.54 246.82 3.74 M 217.58 17.29 C 201.04 20.54 184.54 24.51 168.89 30.85 C 152.68 38.26 137.70 48.57 125.42 61.53 C 115.09 71.97 107.91 84.91 99.14 96.57 C 106.84 105.31 115.52 113.11 123.40 121.68 C 133.43 131.96 143.67 142.02 153.71 152.29 C 158.02 157.32 162.96 161.77 167.55 166.54 C 177.54 159.26 188.01 152.53 197.21 144.24 C 215.67 128.04 228.75 106.31 236.43 83.11 C 244.15 61.11 246.45 37.78 249.13 14.77 C 238.56 14.54 227.96 15.27 217.58 17.29 M 112.87 44.92 C 105.66 48.68 99.73 54.38 93.82 59.86 C 86.79 67.15 79.70 74.39 73.25 82.19 C 71.63 84.58 68.38 86.98 68.82 90.01 C 73.30 92.79 78.93 92.24 83.97 92.03 C 90.68 91.65 95.64 86.49 99.45 81.47 C 105.36 72.85 111.91 64.69 118.36 56.47 C 122.02 51.80 126.86 48.11 130.08 43.10 C 124.33 43.19 118.14 41.97 112.87 44.92 M 94.41 108.48 C 91.98 110.58 88.69 112.68 88.14 116.07 C 89.03 120.47 91.96 124.04 94.65 127.49 C 105.25 140.43 117.53 151.84 129.25 163.73 C 133.93 168.39 138.60 173.21 144.28 176.66 C 146.07 177.71 148.53 178.74 150.45 177.40 C 153.12 175.55 155.76 172.10 154.35 168.73 C 152.43 163.46 148.40 159.36 144.75 155.24 C 134.73 143.95 123.87 133.45 113.23 122.75 C 108.36 117.90 103.51 112.95 97.99 108.82 C 97.02 107.96 95.48 107.57 94.41 108.48 M 77.06 129.06 C 68.73 133.23 61.56 140.15 57.70 148.68 C 54.12 158.02 54.15 168.19 53.14 178.02 C 52.94 190.33 51.78 202.61 51.95 214.94 C 65.62 214.08 79.34 214.18 93.00 213.01 C 100.26 212.43 107.66 211.95 114.61 209.59 C 123.17 206.68 129.46 199.64 134.47 192.42 C 136.60 189.19 138.55 184.18 135.29 181.04 C 130.71 182.63 126.36 184.76 122.10 187.06 C 110.45 192.82 97.00 192.92 84.33 191.67 C 80.65 191.23 75.86 190.11 75.34 185.68 C 73.13 174.03 73.17 161.74 76.37 150.26 C 78.41 142.45 84.09 136.01 85.24 127.93 C 82.46 127.35 79.55 127.65 77.06 129.06 M 85.30 148.04 C 84.05 157.64 84.37 167.34 84.30 177.00 C 84.66 178.47 83.47 180.95 85.40 181.59 C 96.49 181.61 107.84 182.43 118.67 179.54 C 120.53 178.81 123.13 178.30 123.54 175.98 C 122.66 171.18 119.48 167.27 116.63 163.47 C 110.48 155.90 103.85 148.55 95.94 142.79 C 93.93 141.18 91.38 140.77 88.89 140.57 C 86.92 142.62 85.73 145.25 85.30 148.04 M 210.73 145.64 C 204.79 148.41 199.84 152.81 194.69 156.77 C 187.84 162.23 180.75 167.39 173.47 172.26 C 170.50 174.14 168.58 177.58 169.23 181.14 C 170.32 188.31 172.49 195.27 174.20 202.31 C 182.59 194.01 190.71 185.44 198.92 176.96 C 205.07 170.11 211.82 163.66 216.63 155.73 C 218.10 153.09 219.94 149.35 217.31 146.80 C 215.87 144.51 212.92 144.60 210.73 145.64 Z" />
<path fill="#000000" opacity="1.00" d=" M 189.11 31.07 C 189.71 30.16 190.56 28.47 191.93 29.04 C 195.98 31.86 196.93 37.67 194.96 42.02 C 193.98 42.42 192.98 42.78 191.97 43.08 C 188.22 40.39 188.48 35.13 189.11 31.07 Z" />
<path fill="#000000" opacity="1.00" d=" M 221.40 37.48 C 223.05 36.63 224.87 37.76 226.00 38.96 C 227.19 42.37 223.85 45.39 220.90 46.40 C 218.84 47.40 216.55 45.17 217.05 43.06 C 217.59 40.70 218.84 38.13 221.40 37.48 Z" />
<path fill="#000000" opacity="1.00" d=" M 184.60 48.80 C 193.64 46.87 204.00 49.68 209.86 57.09 C 217.97 67.25 216.77 83.55 207.07 92.28 C 204.54 94.42 201.70 96.23 198.55 97.31 C 192.15 99.52 186.04 102.58 180.45 106.41 C 175.66 109.98 171.35 114.86 165.09 115.69 C 154.99 116.96 145.94 105.23 149.80 95.76 C 152.19 88.16 160.13 84.40 163.14 77.17 C 165.19 73.16 164.32 68.38 166.51 64.42 C 170.21 57.24 176.24 50.23 184.60 48.80 M 181.34 59.26 C 174.35 65.63 171.50 75.16 169.99 84.20 L 170.48 85.47 C 170.50 85.48 170.53 85.51 170.55 85.52 L 171.80 86.12 C 176.91 82.76 180.88 77.29 181.03 71.00 C 180.96 68.60 183.70 67.42 185.64 68.53 C 189.87 70.55 193.41 74.22 195.36 78.47 C 196.49 80.38 195.32 83.18 192.94 83.10 C 186.36 83.64 179.96 87.77 177.59 94.07 C 185.97 94.23 194.34 91.03 201.02 86.06 C 205.95 82.36 209.57 76.24 208.84 69.94 C 207.90 63.84 203.40 58.76 198.04 56.00 C 192.48 53.32 185.69 55.17 181.34 59.26 M 158.07 96.03 C 154.86 98.21 157.51 102.34 159.30 104.60 C 161.38 106.77 165.49 109.60 168.17 106.99 C 168.85 101.46 163.53 96.01 158.07 96.03 Z" />
<path fill="#000000" opacity="1.00" d=" M 221.50 73.47 C 218.93 71.15 222.21 67.74 224.92 67.95 C 228.73 67.67 233.97 69.38 234.29 73.86 C 230.35 75.79 225.21 76.01 221.50 73.47 Z" />
<path fill="#000000" opacity="1.00" d=" M 0.30 125.23 C 2.47 124.81 4.77 124.44 6.86 125.40 C 11.19 127.05 15.37 129.14 19.22 131.70 C 26.64 137.23 32.14 145.14 35.32 153.78 C 36.59 157.70 37.79 162.13 36.05 166.09 C 32.65 174.79 27.25 182.48 22.38 190.39 C 17.19 199.48 12.72 209.10 10.17 219.30 C 9.59 222.30 8.72 225.50 9.64 228.52 C 9.92 229.78 11.53 230.23 12.57 229.61 C 16.45 227.70 19.66 224.71 22.89 221.88 C 26.65 218.52 30.25 214.35 35.52 213.55 C 35.26 215.74 35.03 218.03 33.90 219.98 C 30.58 226.02 25.86 231.13 21.08 236.03 C 17.62 240.01 13.70 243.96 12.05 249.10 C 10.99 252.07 15.21 253.31 15.27 256.07 C 15.44 260.15 10.83 263.32 7.03 262.12 C 3.90 258.61 8.57 253.97 6.61 250.11 C 5.38 248.21 3.39 246.88 2.41 244.81 C 1.50 242.76 1.14 240.53 0.63 238.36 C 0.72 221.48 4.49 204.39 12.55 189.50 C 15.53 183.40 22.36 180.00 24.08 173.17 C 26.76 163.05 24.97 151.63 18.79 143.09 C 15.92 138.81 11.09 136.43 6.03 135.99 C 3.59 136.01 2.51 133.70 1.34 131.97 C 1.00 131.77 0.33 131.37 0.00 131.17 L 0.00 127.61 C 0.08 127.01 0.23 125.83 0.30 125.23 Z" />
<path fill="#000000" opacity="1.00" d=" M 132.38 227.48 C 137.01 224.17 142.70 220.17 148.63 222.62 C 158.00 226.25 165.60 233.80 170.30 242.58 C 172.47 246.35 171.97 250.84 173.20 254.88 C 175.28 258.75 180.39 258.10 184.10 258.46 C 187.46 258.40 190.70 259.69 192.97 262.21 C 190.56 264.63 187.20 265.48 183.93 266.00 L 165.31 266.00 C 163.99 265.24 162.47 264.44 162.03 262.84 C 162.27 258.35 164.62 253.97 163.49 249.42 C 161.76 241.73 155.59 235.93 149.32 231.64 C 145.83 229.09 141.25 230.68 138.27 233.23 C 128.13 241.39 121.14 253.11 109.76 259.79 C 104.10 263.33 97.39 264.40 90.92 265.47 C 87.82 265.93 84.68 265.91 81.57 265.64 C 79.91 265.07 77.90 264.58 77.05 262.87 C 76.22 260.94 77.09 258.88 77.96 257.15 C 80.33 252.67 83.93 249.03 87.47 245.48 C 90.95 241.97 94.72 238.60 99.20 236.43 C 101.01 235.70 103.58 234.50 104.76 236.82 C 102.53 244.91 93.12 249.13 92.31 257.79 C 99.26 257.00 104.74 252.22 110.03 248.07 C 118.01 241.78 123.99 233.30 132.38 227.48 Z" />
<path fill="#000000" opacity="1.00" d=" M 57.54 236.53 C 60.13 234.55 62.88 232.39 66.32 232.41 C 66.69 235.71 64.64 238.45 62.85 240.98 C 57.93 247.59 51.98 253.40 45.45 258.40 C 42.61 260.47 39.45 262.81 35.71 262.25 C 36.15 259.33 37.68 256.78 39.51 254.53 C 44.81 247.87 50.87 241.82 57.54 236.53 Z" />
<path fill="#000000" opacity="1.00" d=" M 200.65 260.54 C 201.91 257.82 206.37 257.51 207.69 260.32 C 209.03 262.21 207.57 264.24 206.77 266.00 L 202.17 266.00 C 200.98 264.50 199.43 262.49 200.65 260.54 Z" />
<path fill="#000000" opacity="1.00" d=" M 217.75 266.00 C 215.96 263.59 215.40 259.56 219.02 258.54 C 223.56 256.99 225.86 263.31 222.47 266.00 L 217.75 266.00 Z" />
</g>
<g id="#ffffffff">
<path fill="#ffffff" opacity="1.00" d=" M 217.58 17.29 C 227.96 15.27 238.56 14.54 249.13 14.77 C 246.45 37.78 244.15 61.11 236.43 83.11 C 228.75 106.31 215.67 128.04 197.21 144.24 C 188.01 152.53 177.54 159.26 167.55 166.54 C 162.96 161.77 158.02 157.32 153.71 152.29 C 143.67 142.02 133.43 131.96 123.40 121.68 C 115.52 113.11 106.84 105.31 99.14 96.57 C 107.91 84.91 115.09 71.97 125.42 61.53 C 137.70 48.57 152.68 38.26 168.89 30.85 C 184.54 24.51 201.04 20.54 217.58 17.29 M 189.11 31.07 C 188.48 35.13 188.22 40.39 191.97 43.08 C 192.98 42.78 193.98 42.42 194.96 42.02 C 196.93 37.67 195.98 31.86 191.93 29.04 C 190.56 28.47 189.71 30.16 189.11 31.07 M 221.40 37.48 C 218.84 38.13 217.59 40.70 217.05 43.06 C 216.55 45.17 218.84 47.40 220.90 46.40 C 223.85 45.39 227.19 42.37 226.00 38.96 C 224.87 37.76 223.05 36.63 221.40 37.48 M 184.60 48.80 C 176.24 50.23 170.21 57.24 166.51 64.42 C 164.32 68.38 165.19 73.16 163.14 77.17 C 160.13 84.40 152.19 88.16 149.80 95.76 C 145.94 105.23 154.99 116.96 165.09 115.69 C 171.35 114.86 175.66 109.98 180.45 106.41 C 186.04 102.58 192.15 99.52 198.55 97.31 C 201.70 96.23 204.54 94.42 207.07 92.28 C 216.77 83.55 217.97 67.25 209.86 57.09 C 204.00 49.68 193.64 46.87 184.60 48.80 M 221.50 73.47 C 225.21 76.01 230.35 75.79 234.29 73.86 C 233.97 69.38 228.73 67.67 224.92 67.95 C 222.21 67.74 218.93 71.15 221.50 73.47 Z" />
</g>
<g id="#00a8f3ff">
<path fill="#00a8f3" opacity="1.00" d=" M 112.87 44.92 C 118.14 41.97 124.33 43.19 130.08 43.10 C 126.86 48.11 122.02 51.80 118.36 56.47 C 111.91 64.69 105.36 72.85 99.45 81.47 C 95.64 86.49 90.68 91.65 83.97 92.03 C 78.93 92.24 73.30 92.79 68.82 90.01 C 68.38 86.98 71.63 84.58 73.25 82.19 C 79.70 74.39 86.79 67.15 93.82 59.86 C 99.73 54.38 105.66 48.68 112.87 44.92 Z" />
<path fill="#00a8f3" opacity="1.00" d=" M 210.73 145.64 C 212.92 144.60 215.87 144.51 217.31 146.80 C 219.94 149.35 218.10 153.09 216.63 155.73 C 211.82 163.66 205.07 170.11 198.92 176.96 C 190.71 185.44 182.59 194.01 174.20 202.31 C 172.49 195.27 170.32 188.31 169.23 181.14 C 168.58 177.58 170.50 174.14 173.47 172.26 C 180.75 167.39 187.84 162.23 194.69 156.77 C 199.84 152.81 204.79 148.41 210.73 145.64 Z" />
</g>
<g id="#fff200ff">
<path fill="#fff200" opacity="1.00" d=" M 181.34 59.26 C 185.69 55.17 192.48 53.32 198.04 56.00 C 203.40 58.76 207.90 63.84 208.84 69.94 C 209.57 76.24 205.95 82.36 201.02 86.06 C 194.34 91.03 185.97 94.23 177.59 94.07 C 179.96 87.77 186.36 83.64 192.94 83.10 C 195.32 83.18 196.49 80.38 195.36 78.47 C 193.41 74.22 189.87 70.55 185.64 68.53 C 183.70 67.42 180.96 68.60 181.03 71.00 C 180.88 77.29 176.91 82.76 171.80 86.12 L 170.55 85.52 C 170.53 85.51 170.50 85.48 170.48 85.47 L 169.99 84.20 C 171.50 75.16 174.35 65.63 181.34 59.26 Z" />
</g>
<g id="#656565ff">
<path fill="#656565" opacity="1.00" d=" M 170.48 85.47 C 170.50 85.48 170.53 85.51 170.55 85.52 C 170.53 85.51 170.50 85.48 170.48 85.47 Z" />
</g>
<g id="#c3c3c3ff">
<path fill="#c3c3c3" opacity="1.00" d=" M 158.07 96.03 C 163.53 96.01 168.85 101.46 168.17 106.99 C 165.49 109.60 161.38 106.77 159.30 104.60 C 157.51 102.34 154.86 98.21 158.07 96.03 Z" />
<path fill="#c3c3c3" opacity="1.00" d=" M 94.41 108.48 C 95.48 107.57 97.02 107.96 97.99 108.82 C 103.51 112.95 108.36 117.90 113.23 122.75 C 123.87 133.45 134.73 143.95 144.75 155.24 C 148.40 159.36 152.43 163.46 154.35 168.73 C 155.76 172.10 153.12 175.55 150.45 177.40 C 148.53 178.74 146.07 177.71 144.28 176.66 C 138.60 173.21 133.93 168.39 129.25 163.73 C 117.53 151.84 105.25 140.43 94.65 127.49 C 91.96 124.04 89.03 120.47 88.14 116.07 C 88.69 112.68 91.98 110.58 94.41 108.48 Z" />
<path fill="#c3c3c3" opacity="1.00" d=" M 0.00 131.17 C 0.33 131.37 1.00 131.77 1.34 131.97 C 2.51 133.70 3.59 136.01 6.03 135.99 C 11.09 136.43 15.92 138.81 18.79 143.09 C 24.97 151.63 26.76 163.05 24.08 173.17 C 22.36 180.00 15.53 183.40 12.55 189.50 C 4.49 204.39 0.72 221.48 0.63 238.36 L 0.00 236.43 L 0.00 131.17 Z" />
<path fill="#c3c3c3" opacity="1.00" d=" M 138.27 233.23 C 141.25 230.68 145.83 229.09 149.32 231.64 C 155.59 235.93 161.76 241.73 163.49 249.42 C 164.62 253.97 162.27 258.35 162.03 262.84 C 162.47 264.44 163.99 265.24 165.31 266.00 L 82.82 266.00 L 81.57 265.64 C 84.68 265.91 87.82 265.93 90.92 265.47 C 97.39 264.40 104.10 263.33 109.76 259.79 C 121.14 253.11 128.13 241.39 138.27 233.23 Z" />
</g>
<g id="#ec1c24ff">
<path fill="#ec1c24" opacity="1.00" d=" M 77.06 129.06 C 79.55 127.65 82.46 127.35 85.24 127.93 C 84.09 136.01 78.41 142.45 76.37 150.26 C 73.17 161.74 73.13 174.03 75.34 185.68 C 75.86 190.11 80.65 191.23 84.33 191.67 C 97.00 192.92 110.45 192.82 122.10 187.06 C 126.36 184.76 130.71 182.63 135.29 181.04 C 138.55 184.18 136.60 189.19 134.47 192.42 C 129.46 199.64 123.17 206.68 114.61 209.59 C 107.66 211.95 100.26 212.43 93.00 213.01 C 79.34 214.18 65.62 214.08 51.95 214.94 C 51.78 202.61 52.94 190.33 53.14 178.02 C 54.15 168.19 54.12 158.02 57.70 148.68 C 61.56 140.15 68.73 133.23 77.06 129.06 Z" />
</g>
<g id="#ffca18ff">
<path fill="#ffca18" opacity="1.00" d=" M 85.30 148.04 C 85.73 145.25 86.92 142.62 88.89 140.57 C 91.38 140.77 93.93 141.18 95.94 142.79 C 103.85 148.55 110.48 155.90 116.63 163.47 C 119.48 167.27 122.66 171.18 123.54 175.98 C 123.13 178.30 120.53 178.81 118.67 179.54 C 107.84 182.43 96.49 181.61 85.40 181.59 C 83.47 180.95 84.66 178.47 84.30 177.00 C 84.37 167.34 84.05 157.64 85.30 148.04 Z" />
</g>
</svg>
