<?xml version="1.0" encoding="UTF-8" ?>
<!DOCTYPE svg PUBLIC "-//W3C//DTD SVG 1.1//EN" "http://www.w3.org/Graphics/SVG/1.1/DTD/svg11.dtd">
<svg width="65pt" height="65pt" viewBox="0 0 65 65" version="1.1" xmlns="http://www.w3.org/2000/svg">
<g id="#000000fe">
<path fill="#000000" opacity="1.00" d=" M 4.13 0.00 L 60.77 0.00 C 62.67 0.79 64.15 2.25 65.00 4.13 L 65.00 49.88 C 64.15 51.60 63.08 53.63 60.96 53.92 C 55.54 54.58 50.06 54.04 44.62 54.20 C 45.80 55.64 46.97 57.08 48.15 58.52 C 51.63 58.59 55.13 58.26 58.59 58.70 C 61.45 59.96 63.89 62.20 65.31 65.00 L 0.40 65.00 C 0.45 61.93 3.69 60.33 5.96 58.88 C 9.50 58.06 13.22 58.68 16.83 58.53 C 18.01 57.09 19.20 55.65 20.38 54.20 C 14.95 54.04 9.49 54.57 4.09 53.93 C 2.07 53.67 1.02 51.75 0.00 50.23 L 0.00 4.23 C 0.80 2.33 2.25 0.85 4.13 0.00 M 4.31 2.37 C 2.35 2.95 2.07 5.18 2.16 6.91 C 2.20 20.62 2.15 34.34 2.19 48.05 C 1.84 50.26 3.70 52.33 5.97 51.97 C 23.68 52.02 41.40 52.02 59.12 51.97 C 61.33 52.29 63.15 50.26 62.81 48.11 C 62.79 33.76 62.93 19.40 62.73 5.06 C 62.71 2.63 59.98 1.92 58.01 2.18 C 40.11 2.34 22.19 1.95 4.31 2.37 M 23.25 54.19 C 22.05 55.63 20.86 57.06 19.68 58.51 C 28.23 58.55 36.79 58.54 45.34 58.51 C 44.15 57.07 42.95 55.63 41.75 54.19 C 35.58 54.20 29.42 54.21 23.25 54.19 M 4.15 62.85 C 23.05 62.88 41.95 62.88 60.85 62.84 C 59.92 62.11 59.00 61.39 58.07 60.66 C 41.02 60.68 23.98 60.67 6.93 60.66 C 6.00 61.39 5.08 62.12 4.15 62.85 Z" />
<path fill="#000000" opacity="1.00" d=" M 4.45 4.43 C 23.14 4.25 41.84 4.29 60.53 4.41 C 60.71 18.09 60.76 31.79 60.50 45.47 C 41.83 45.57 23.15 45.59 4.48 45.46 C 4.24 31.79 4.31 18.10 4.45 4.43 M 6.53 6.55 C 6.54 18.81 6.52 31.07 6.54 43.33 C 23.86 43.34 41.17 43.31 58.49 43.34 C 58.57 31.08 58.51 18.81 58.52 6.54 C 41.19 6.54 23.86 6.52 6.53 6.55 Z" />
<path fill="#000000" opacity="1.00" d=" M 8.71 8.75 C 24.57 8.62 40.44 8.59 56.30 8.76 C 56.32 10.88 56.31 13.00 56.25 15.12 C 50.36 15.30 44.46 15.10 38.57 15.26 C 39.95 19.88 37.88 25.32 33.35 27.27 C 30.32 28.86 26.89 27.95 23.84 26.96 C 23.79 27.68 23.69 29.13 23.64 29.85 C 20.46 32.96 17.53 36.33 14.12 39.19 C 11.00 41.63 6.29 37.60 8.11 34.10 C 9.82 31.55 12.29 29.66 14.36 27.42 C 16.08 25.81 17.66 23.19 20.43 24.15 C 19.89 21.18 19.34 18.17 19.79 15.15 C 16.11 15.24 12.43 15.22 8.75 15.12 C 8.69 13.00 8.68 10.87 8.71 8.75 M 10.83 10.88 C 10.83 11.40 10.83 12.46 10.82 12.99 C 14.84 12.36 20.19 14.74 23.02 10.95 C 18.96 10.81 14.89 10.88 10.83 10.88 M 26.37 11.42 C 21.12 13.32 20.03 21.21 24.64 24.40 C 28.73 27.92 35.82 25.23 36.66 19.94 C 38.12 14.30 31.65 8.93 26.37 11.42 M 35.56 10.87 C 35.99 11.39 36.85 12.43 37.28 12.95 C 42.91 13.04 48.54 12.99 54.18 12.99 C 54.18 12.46 54.17 11.41 54.17 10.88 C 47.97 10.86 41.77 10.87 35.56 10.87 M 10.10 35.01 C 9.47 36.57 11.07 38.12 12.59 37.59 C 15.75 35.10 18.37 31.99 21.22 29.16 C 20.25 28.27 19.27 27.37 18.30 26.48 C 15.67 29.42 12.57 31.93 10.10 35.01 Z" />
<path fill="#000000" opacity="1.00" d=" M 22.45 18.37 C 23.07 14.83 25.73 12.08 29.34 11.66 C 29.78 14.09 27.06 14.33 25.99 15.86 C 24.91 16.91 24.63 19.46 22.45 18.37 Z" />
<path fill="#000000" opacity="1.00" d=" M 48.55 19.55 C 51.11 19.52 53.68 19.54 56.24 19.58 C 56.33 22.08 56.37 24.57 56.37 27.07 C 55.82 27.07 54.73 27.06 54.18 27.06 C 54.17 26.10 54.16 24.19 54.16 23.23 C 51.73 25.64 49.31 28.07 46.89 30.49 C 45.37 29.80 43.86 29.11 42.34 28.42 C 39.17 31.31 35.93 34.12 32.76 37.01 C 31.58 36.34 30.41 35.67 29.24 35.00 C 26.94 37.02 24.62 39.00 22.24 40.94 C 21.93 40.51 21.31 39.66 21.00 39.23 C 23.69 36.91 26.38 34.60 29.10 32.31 C 30.18 32.99 31.26 33.67 32.34 34.35 C 35.64 31.60 38.77 28.66 42.03 25.87 C 43.53 26.54 45.03 27.22 46.53 27.88 C 48.49 25.80 50.48 23.76 52.56 21.80 C 51.08 21.43 47.90 22.44 48.55 19.55 Z" />
<path fill="#000000" opacity="1.00" d=" M 27.04 47.68 C 30.68 47.66 34.32 47.66 37.96 47.68 C 37.96 48.22 37.95 49.32 37.94 49.86 C 34.31 49.87 30.68 49.87 27.06 49.86 C 27.05 49.32 27.05 48.22 27.04 47.68 Z" />
</g>
</svg>
