<?xml version="1.0" encoding="UTF-8" ?>
<!DOCTYPE svg PUBLIC "-//W3C//DTD SVG 1.1//EN" "http://www.w3.org/Graphics/SVG/1.1/DTD/svg11.dtd">
<svg width="350pt" height="347pt" viewBox="0 0 350 347" version="1.1" xmlns="http://www.w3.org/2000/svg">
<g id="#e5e5e5ff">
<path fill="#e5e5e5" opacity="1.00" d=" M 45.16 120.14 C 67.40 105.71 92.17 95.65 117.44 87.93 C 121.31 99.33 129.06 109.52 139.73 115.30 C 148.77 120.42 159.38 122.30 169.68 121.50 C 166.20 142.89 156.70 164.63 138.67 177.61 C 118.55 192.98 87.44 190.31 70.01 172.05 C 55.31 158.74 48.68 139.13 45.16 120.14 Z" />
<path fill="#e5e5e5" opacity="1.00" d=" M 192.53 162.38 C 194.04 160.89 196.16 160.21 197.99 159.18 C 202.45 164.72 203.70 172.02 203.76 178.96 C 203.76 189.36 201.89 199.73 202.88 210.14 C 199.22 210.12 195.55 210.13 191.89 210.12 C 191.84 194.21 190.97 178.25 192.53 162.38 Z" />
<path fill="#e5e5e5" opacity="1.00" d=" M 214.14 191.98 C 217.45 192.02 220.76 192.05 224.07 191.96 C 226.22 197.81 224.56 204.37 224.96 210.50 C 223.96 212.03 222.98 213.57 221.95 215.08 C 220.03 215.02 218.11 215.01 216.19 215.00 C 215.53 214.21 214.88 213.41 214.23 212.62 C 213.94 212.11 213.38 211.09 213.09 210.58 C 213.46 204.40 212.20 197.96 214.14 191.98 Z" />
<path fill="#e5e5e5" opacity="1.00" d=" M 79.65 218.49 C 79.58 210.15 79.28 201.81 79.20 193.48 C 97.37 200.11 117.84 200.28 136.02 193.53 C 135.79 201.73 135.61 209.93 135.48 218.13 C 126.48 222.61 117.57 227.24 108.69 231.93 C 98.95 227.57 89.32 222.98 79.65 218.49 Z" />
<path fill="#e5e5e5" opacity="1.00" d=" M 238.45 192.99 C 241.19 193.02 243.96 192.78 246.69 193.14 C 249.09 194.58 247.66 197.71 248.07 199.96 C 248.80 205.96 247.70 211.96 248.05 217.98 C 247.96 220.17 248.59 222.60 247.30 224.56 C 246.85 225.71 247.02 227.50 245.54 227.91 C 243.18 228.18 240.78 228.15 238.44 227.87 C 236.91 227.50 237.15 225.64 236.73 224.50 C 235.64 222.86 235.94 220.84 235.84 219.00 C 235.92 211.64 236.20 204.28 235.86 196.93 C 235.44 195.08 237.47 194.17 238.45 192.99 Z" />
<path fill="#e5e5e5" opacity="1.00" d=" M 260.22 194.04 C 263.92 193.32 268.55 194.03 269.83 198.16 C 272.61 206.94 269.30 216.13 269.32 225.08 C 266.16 226.95 262.54 226.51 259.57 224.50 C 259.64 220.98 258.46 217.57 258.51 214.05 C 258.48 207.35 259.27 200.67 260.22 194.04 Z" />
<path fill="#e5e5e5" opacity="1.00" d=" M 174.99 230.13 C 177.39 223.45 185.36 219.94 192.08 221.35 C 202.66 223.10 213.54 218.90 223.97 222.04 C 228.46 223.27 231.36 227.23 232.87 231.43 C 222.30 232.40 211.66 232.31 201.09 233.10 C 196.37 237.03 192.37 242.83 185.90 243.85 C 178.78 244.83 172.64 236.81 174.99 230.13 Z" />
<path fill="#e5e5e5" opacity="1.00" d=" M 204.76 244.78 C 223.68 246.13 241.21 236.42 260.03 236.74 C 264.05 236.77 268.01 237.49 271.90 238.46 C 268.28 251.66 259.83 264.71 246.39 269.41 C 239.49 271.33 232.24 273.17 225.05 271.76 C 213.68 269.71 203.80 262.98 195.25 255.51 C 198.50 252.00 201.58 248.34 204.76 244.78 Z" />
<path fill="#e5e5e5" opacity="1.00" d=" M 115.82 247.02 C 122.40 249.21 129.04 251.21 135.61 253.40 C 135.91 278.40 135.67 303.41 135.75 328.41 C 129.35 328.14 122.94 328.14 116.54 327.85 C 121.31 319.00 125.53 309.87 130.32 301.04 C 125.66 282.99 120.74 265.01 115.82 247.02 Z" />
<path fill="#e5e5e5" opacity="1.00" d=" M 79.66 253.20 C 86.26 251.22 92.83 249.15 99.43 247.16 C 95.18 263.19 90.09 279.01 86.34 295.17 C 84.57 307.72 94.33 317.40 98.46 328.39 C 92.10 328.25 85.74 328.22 79.38 328.10 C 79.41 303.13 79.24 278.16 79.66 253.20 Z" />
</g>
<g id="#000000ff">
<path fill="#000000" opacity="1.00" d=" M 6.63 2.77 C 118.80 2.73 230.96 2.76 343.13 2.75 C 343.11 13.31 343.13 23.86 343.12 34.42 C 337.55 35.67 331.93 36.72 326.37 37.98 C 325.91 108.38 327.33 178.80 325.68 249.19 C 310.92 249.58 296.15 249.46 281.40 249.78 C 258.25 277.24 241.63 309.27 222.21 339.29 C 150.34 339.20 78.48 339.26 6.62 339.26 C 6.72 334.85 6.37 330.41 6.90 326.02 C 11.82 290.23 13.60 253.99 20.75 218.52 C 21.47 214.69 22.62 210.92 22.63 206.99 C 24.58 150.44 22.67 93.85 23.39 37.28 C 17.80 36.65 12.21 35.91 6.62 35.22 C 6.63 24.40 6.61 13.58 6.63 2.77 M 16.79 13.98 C 16.87 17.73 17.68 21.47 19.09 24.94 C 72.73 25.13 126.35 26.30 179.99 25.68 C 212.00 25.84 244.00 25.31 276.01 25.49 C 294.70 24.91 313.42 25.23 332.12 25.48 C 332.24 21.65 332.29 17.82 332.03 13.99 C 308.69 13.93 285.34 14.21 261.99 13.79 C 198.67 13.80 135.35 13.81 72.03 13.79 C 53.62 14.20 35.20 13.95 16.79 13.98 M 34.92 36.12 C 33.86 38.97 34.45 42.06 34.33 45.03 C 34.52 56.20 33.54 67.41 34.40 78.55 C 37.02 75.02 38.95 71.04 41.62 67.54 C 49.33 56.74 59.03 47.29 70.31 40.26 C 72.31 39.01 74.35 37.82 76.27 36.44 C 62.53 35.49 48.70 36.60 34.92 36.12 M 139.72 36.46 C 149.63 42.81 159.60 49.56 166.91 58.96 C 179.28 73.65 186.59 92.78 185.93 112.07 C 185.92 113.92 185.02 115.57 184.21 117.17 C 177.44 129.91 176.39 144.82 169.55 157.53 C 164.17 168.46 155.33 177.07 147.01 185.74 C 146.24 192.38 146.40 199.10 145.97 205.77 C 152.42 209.52 159.94 211.17 167.20 212.72 C 171.73 213.21 176.53 214.60 180.96 212.95 C 182.36 197.40 178.31 181.74 181.32 166.30 C 182.61 159.06 186.60 152.58 191.88 147.55 C 191.96 138.69 192.12 129.84 192.72 121.01 C 203.42 120.96 214.11 120.98 224.81 121.00 C 224.86 136.51 225.36 152.06 224.60 167.55 C 223.19 168.58 221.49 169.08 219.96 169.88 C 215.68 171.85 212.66 176.16 211.96 180.78 C 212.28 181.02 212.92 181.51 213.24 181.76 C 218.51 182.94 223.88 183.60 229.17 184.72 C 242.47 186.46 255.85 180.45 269.04 183.99 C 273.49 185.58 278.86 188.21 279.58 193.45 C 282.69 208.42 280.12 223.77 280.96 238.90 C 292.33 238.93 303.69 238.90 315.06 238.82 C 315.19 234.54 315.32 230.25 315.47 225.97 C 315.47 168.66 315.47 111.36 315.47 54.05 C 315.58 48.09 315.22 42.13 315.05 36.17 C 261.71 36.16 208.37 36.27 155.04 36.09 C 149.93 36.13 144.79 35.71 139.72 36.46 M 39.02 110.14 C 44.75 107.21 50.34 104.02 56.02 100.99 C 78.55 89.29 102.49 79.69 127.70 75.87 C 130.38 85.39 131.58 96.57 139.82 103.19 C 149.98 111.33 163.85 109.80 176.02 110.01 C 176.43 102.49 174.39 95.11 171.93 88.09 C 164.56 68.02 148.23 50.94 127.64 44.47 C 117.83 41.15 107.31 41.53 97.12 42.19 C 64.94 47.18 39.31 77.78 39.02 110.14 M 45.16 120.14 C 48.68 139.13 55.31 158.74 70.01 172.05 C 87.44 190.31 118.55 192.98 138.67 177.61 C 156.70 164.63 166.20 142.89 169.68 121.50 C 159.38 122.30 148.77 120.42 139.73 115.30 C 129.06 109.52 121.31 99.33 117.44 87.93 C 92.17 95.65 67.40 105.71 45.16 120.14 M 34.12 144.99 C 34.54 166.35 34.05 187.70 34.23 209.06 C 34.46 211.99 33.85 215.05 34.96 217.86 C 46.26 213.69 57.93 210.43 69.06 205.85 C 68.71 199.21 69.22 192.44 68.17 185.89 C 65.11 182.61 61.61 179.75 58.76 176.26 C 46.40 162.01 38.44 144.27 34.27 125.98 C 34.15 132.32 33.93 138.65 34.12 144.99 M 202.93 131.47 C 202.65 141.02 202.86 150.59 202.82 160.15 C 206.65 160.26 210.48 160.37 214.32 160.14 C 214.08 150.59 214.45 141.03 214.09 131.47 C 210.37 131.50 206.65 131.50 202.93 131.47 M 192.53 162.38 C 190.97 178.25 191.84 194.21 191.89 210.12 C 195.55 210.13 199.22 210.12 202.88 210.14 C 201.89 199.73 203.76 189.36 203.76 178.96 C 203.70 172.02 202.45 164.72 197.99 159.18 C 196.16 160.21 194.04 160.89 192.53 162.38 M 214.14 191.98 C 212.20 197.96 213.46 204.40 213.09 210.58 C 213.38 211.09 213.94 212.11 214.23 212.62 C 214.88 213.41 215.53 214.21 216.19 215.00 C 218.11 215.01 220.03 215.02 221.95 215.08 C 222.98 213.57 223.96 212.03 224.96 210.50 C 224.56 204.37 226.22 197.81 224.07 191.96 C 220.76 192.05 217.45 192.02 214.14 191.98 M 79.65 218.49 C 89.32 222.98 98.95 227.57 108.69 231.93 C 117.57 227.24 126.48 222.61 135.48 218.13 C 135.61 209.93 135.79 201.73 136.02 193.53 C 117.84 200.28 97.37 200.11 79.20 193.48 C 79.28 201.81 79.58 210.15 79.65 218.49 M 238.45 192.99 C 237.47 194.17 235.44 195.08 235.86 196.93 C 236.20 204.28 235.92 211.64 235.84 219.00 C 235.94 220.84 235.64 222.86 236.73 224.50 C 237.15 225.64 236.91 227.50 238.44 227.87 C 240.78 228.15 243.18 228.18 245.54 227.91 C 247.02 227.50 246.85 225.71 247.30 224.56 C 248.59 222.60 247.96 220.17 248.05 217.98 C 247.70 211.96 248.80 205.96 248.07 199.96 C 247.66 197.71 249.09 194.58 246.69 193.14 C 243.96 192.78 241.19 193.02 238.45 192.99 M 260.22 194.04 C 259.27 200.67 258.48 207.35 258.51 214.05 C 258.46 217.57 259.64 220.98 259.57 224.50 C 262.54 226.51 266.16 226.95 269.32 225.08 C 269.30 216.13 272.61 206.94 269.83 198.16 C 268.55 194.03 263.92 193.32 260.22 194.04 M 174.99 230.13 C 172.64 236.81 178.78 244.83 185.90 243.85 C 192.37 242.83 196.37 237.03 201.09 233.10 C 211.66 232.31 222.30 232.40 232.87 231.43 C 231.36 227.23 228.46 223.27 223.97 222.04 C 213.54 218.90 202.66 223.10 192.08 221.35 C 185.36 219.94 177.39 223.45 174.99 230.13 M 125.97 236.88 C 127.59 238.81 129.13 241.97 131.99 241.97 C 134.20 240.93 136.62 239.28 137.22 236.76 C 137.26 233.66 134.12 232.31 132.02 230.74 C 129.49 232.22 126.92 233.94 125.97 236.88 M 79.10 233.25 C 78.39 235.75 77.77 239.24 80.38 240.89 C 82.39 241.82 84.69 241.51 86.75 240.91 C 88.89 238.97 87.98 235.77 87.90 233.24 C 85.39 231.64 81.26 230.76 79.10 233.25 M 204.76 244.78 C 201.58 248.34 198.50 252.00 195.25 255.51 C 203.80 262.98 213.68 269.71 225.05 271.76 C 232.24 273.17 239.49 271.33 246.39 269.41 C 259.83 264.71 268.28 251.66 271.90 238.46 C 268.01 237.49 264.05 236.77 260.03 236.74 C 241.21 236.42 223.68 246.13 204.76 244.78 M 115.82 247.02 C 120.74 265.01 125.66 282.99 130.32 301.04 C 125.53 309.87 121.31 319.00 116.54 327.85 C 122.94 328.14 129.35 328.14 135.75 328.41 C 135.67 303.41 135.91 278.40 135.61 253.40 C 129.04 251.21 122.40 249.21 115.82 247.02 M 79.66 253.20 C 79.24 278.16 79.41 303.13 79.38 328.10 C 85.74 328.22 92.10 328.25 98.46 328.39 C 94.33 317.40 84.57 307.72 86.34 295.17 C 90.09 279.01 95.18 263.19 99.43 247.16 C 92.83 249.15 86.26 251.22 79.66 253.20 M 107.38 262.95 C 102.90 274.69 99.58 286.84 96.38 298.98 C 100.10 306.16 102.92 313.82 107.05 320.78 C 111.06 314.70 113.98 308.00 117.74 301.78 C 118.26 300.72 119.28 299.60 118.69 298.34 C 115.30 286.53 112.12 274.67 108.94 262.80 C 108.40 261.27 107.88 261.32 107.38 262.95 Z" />
<path fill="#000000" opacity="1.00" d=" M 270.96 48.51 C 281.63 47.98 292.33 48.11 303.02 48.00 C 303.21 66.32 303.46 84.63 303.81 102.94 C 303.91 125.56 303.11 148.17 303.02 170.80 C 292.27 171.05 281.55 170.17 270.81 170.02 C 270.89 129.51 270.50 89.01 270.96 48.51 M 281.00 58.96 C 281.02 91.66 280.99 124.35 281.01 157.05 C 281.11 157.64 281.32 158.81 281.42 159.39 C 281.47 159.44 281.56 159.53 281.60 159.57 C 285.16 160.48 288.90 159.92 292.53 159.80 C 292.54 159.74 292.55 159.63 292.56 159.58 C 293.10 156.40 292.94 153.18 292.92 149.97 C 293.02 119.63 292.99 89.29 292.90 58.95 C 288.94 58.72 284.96 58.72 281.00 58.96 Z" />
<path fill="#000000" opacity="1.00" d=" M 231.43 87.98 C 242.22 87.83 253.01 87.43 263.80 87.41 C 264.52 114.85 263.98 142.31 264.21 169.76 C 253.75 170.09 243.34 171.25 232.87 171.21 C 229.75 143.58 231.93 115.71 231.43 87.98 M 242.02 97.95 C 242.03 118.67 241.95 139.39 242.07 160.12 C 246.10 160.18 250.13 160.23 254.16 160.47 C 253.86 141.30 253.54 122.13 253.74 102.95 C 253.72 101.12 253.92 99.20 253.12 97.48 C 249.44 97.94 245.72 97.75 242.02 97.95 Z" />
</g>
<g id="#c3c3c3ff">
<path fill="#c3c3c3" opacity="1.00" d=" M 16.79 13.98 C 35.20 13.95 53.62 14.20 72.03 13.79 C 135.35 13.81 198.67 13.80 261.99 13.79 C 285.34 14.21 308.69 13.93 332.03 13.99 C 332.29 17.82 332.24 21.65 332.12 25.48 C 313.42 25.23 294.70 24.91 276.01 25.49 C 244.00 25.31 212.00 25.84 179.99 25.68 C 126.35 26.30 72.73 25.13 19.09 24.94 C 17.68 21.47 16.87 17.73 16.79 13.98 Z" />
<path fill="#c3c3c3" opacity="1.00" d=" M 125.97 236.88 C 126.92 233.94 129.49 232.22 132.02 230.74 C 134.12 232.31 137.26 233.66 137.22 236.76 C 136.62 239.28 134.20 240.93 131.99 241.97 C 129.13 241.97 127.59 238.81 125.97 236.88 Z" />
<path fill="#c3c3c3" opacity="1.00" d=" M 79.10 233.25 C 81.26 230.76 85.39 231.64 87.90 233.24 C 87.98 235.77 88.89 238.97 86.75 240.91 C 84.69 241.51 82.39 241.82 80.38 240.89 C 77.77 239.24 78.39 235.75 79.10 233.25 Z" />
</g>
<g id="#fdeca6ff">
<path fill="#fdeca6" opacity="1.00" d=" M 34.92 36.12 C 48.70 36.60 62.53 35.49 76.27 36.44 C 74.35 37.82 72.31 39.01 70.31 40.26 C 59.03 47.29 49.33 56.74 41.62 67.54 C 38.95 71.04 37.02 75.02 34.40 78.55 C 33.54 67.41 34.52 56.20 34.33 45.03 C 34.45 42.06 33.86 38.97 34.92 36.12 Z" />
<path fill="#fdeca6" opacity="1.00" d=" M 139.72 36.46 C 144.79 35.71 149.93 36.13 155.04 36.09 C 208.37 36.27 261.71 36.16 315.05 36.17 C 315.22 42.13 315.58 48.09 315.47 54.05 C 315.47 111.36 315.47 168.66 315.47 225.97 C 315.32 230.25 315.19 234.54 315.06 238.82 C 303.69 238.90 292.33 238.93 280.96 238.90 C 280.12 223.77 282.69 208.42 279.58 193.45 C 278.86 188.21 273.49 185.58 269.04 183.99 C 255.85 180.45 242.47 186.46 229.17 184.72 C 223.88 183.60 218.51 182.94 213.24 181.76 C 212.92 181.51 212.28 181.02 211.96 180.78 C 212.66 176.16 215.68 171.85 219.96 169.88 C 221.49 169.08 223.19 168.58 224.60 167.55 C 225.36 152.06 224.86 136.51 224.81 121.00 C 214.11 120.98 203.42 120.96 192.72 121.01 C 192.12 129.84 191.96 138.69 191.88 147.55 C 186.60 152.58 182.61 159.06 181.32 166.30 C 178.31 181.74 182.36 197.40 180.96 212.95 C 176.53 214.60 171.73 213.21 167.20 212.72 C 159.94 211.17 152.42 209.52 145.97 205.77 C 146.40 199.10 146.24 192.38 147.01 185.74 C 155.33 177.07 164.17 168.46 169.55 157.53 C 176.39 144.82 177.44 129.91 184.21 117.17 C 185.02 115.57 185.92 113.92 185.93 112.07 C 186.59 92.78 179.28 73.65 166.91 58.96 C 159.60 49.56 149.63 42.81 139.72 36.46 M 270.96 48.51 C 270.50 89.01 270.89 129.51 270.81 170.02 C 281.55 170.17 292.27 171.05 303.02 170.80 C 303.11 148.17 303.91 125.56 303.81 102.94 C 303.46 84.63 303.21 66.32 303.02 48.00 C 292.33 48.11 281.63 47.98 270.96 48.51 M 231.43 87.98 C 231.93 115.71 229.75 143.58 232.87 171.21 C 243.34 171.25 253.75 170.09 264.21 169.76 C 263.98 142.31 264.52 114.85 263.80 87.41 C 253.01 87.43 242.22 87.83 231.43 87.98 Z" />
<path fill="#fdeca6" opacity="1.00" d=" M 34.12 144.99 C 33.93 138.65 34.15 132.32 34.27 125.98 C 38.44 144.27 46.40 162.01 58.76 176.26 C 61.61 179.75 65.11 182.61 68.17 185.89 C 69.22 192.44 68.71 199.21 69.06 205.85 C 57.93 210.43 46.26 213.69 34.96 217.86 C 33.85 215.05 34.46 211.99 34.23 209.06 C 34.05 187.70 34.54 166.35 34.12 144.99 Z" />
</g>
<g id="#5e3017ff">
<path fill="#5e3017" opacity="1.00" d=" M 39.02 110.14 C 39.31 77.78 64.94 47.18 97.12 42.19 C 107.31 41.53 117.83 41.15 127.64 44.47 C 148.23 50.94 164.56 68.02 171.93 88.09 C 174.39 95.11 176.43 102.49 176.02 110.01 C 163.85 109.80 149.98 111.33 139.82 103.19 C 131.58 96.57 130.38 85.39 127.70 75.87 C 102.49 79.69 78.55 89.29 56.02 100.99 C 50.34 104.02 44.75 107.21 39.02 110.14 Z" />
<path fill="#5e3017" opacity="1.00" d=" M 292.53 159.80 C 292.54 159.74 292.55 159.63 292.56 159.58 C 292.55 159.63 292.54 159.74 292.53 159.80 Z" />
<path fill="#5e3017" opacity="1.00" d=" M 107.38 262.95 C 107.88 261.32 108.40 261.27 108.94 262.80 C 108.55 262.84 107.77 262.91 107.38 262.95 Z" />
</g>
<g id="#ec1c24ff">
<path fill="#ec1c24" opacity="1.00" d=" M 281.00 58.96 C 284.96 58.72 288.94 58.72 292.90 58.95 C 292.99 89.29 293.02 119.63 292.92 149.97 C 292.94 153.18 293.10 156.40 292.56 159.58 C 292.55 159.63 292.54 159.74 292.53 159.80 C 288.90 159.92 285.16 160.48 281.60 159.57 C 281.56 159.53 281.47 159.44 281.42 159.39 C 281.32 158.81 281.11 157.64 281.01 157.05 C 280.99 124.35 281.02 91.66 281.00 58.96 Z" />
</g>
<g id="#b83dbaff">
<path fill="#b83dba" opacity="1.00" d=" M 242.02 97.95 C 245.72 97.75 249.44 97.94 253.12 97.48 C 253.92 99.20 253.72 101.12 253.74 102.95 C 253.54 122.13 253.86 141.30 254.16 160.47 C 250.13 160.23 246.10 160.18 242.07 160.12 C 241.95 139.39 242.03 118.67 242.02 97.95 Z" />
<path fill="#b83dba" opacity="1.00" d=" M 281.42 159.39 C 281.47 159.44 281.56 159.53 281.60 159.57 C 281.56 159.53 281.47 159.44 281.42 159.39 Z" />
</g>
<g id="#3f48ccff">
<path fill="#3f48cc" opacity="1.00" d=" M 202.93 131.47 C 206.65 131.50 210.37 131.50 214.09 131.47 C 214.45 141.03 214.08 150.59 214.32 160.14 C 210.48 160.37 206.65 160.26 202.82 160.15 C 202.86 150.59 202.65 141.02 202.93 131.47 Z" />
</g>
<g id="#c8181fff">
<path fill="#c8181f" opacity="1.00" d=" M 107.38 262.95 C 107.77 262.91 108.55 262.84 108.94 262.80 C 112.12 274.67 115.30 286.53 118.69 298.34 C 119.28 299.60 118.26 300.72 117.74 301.78 C 113.98 308.00 111.06 314.70 107.05 320.78 C 102.92 313.82 100.10 306.16 96.38 298.98 C 99.58 286.84 102.90 274.69 107.38 262.95 Z" />
</g>
</svg>
